#N canvas -8 -8 1536 783 10;
#X obj 32 -143 tgl 15 0 empty empty empty 17 7 0 10 -262144 -1 -1 1
1;
#X msg 31 -118 \; pd dsp \$1;
#X obj 68 598 soundfiler;
#X obj 69 542 bng 15 250 50 0 empty empty empty 17 7 0 10 -262144 -1
-1;
#X obj 69 515 loadbang;
#X obj 391 333 *~;
#X obj 382 378 dac~;
#N canvas 212 36 450 300 (subpatch) 0;
#X array rim 4449 float 0;
#X coords 0 1 4448 -1 300 100 1 0 0;
#X restore 68 797 graph;
#X floatatom 68 622 15 0 0 0 - - -, f 15;
#X obj 674 -143 tgl 15 0 empty empty empty 17 7 0 10 -262144 -1 -1
1 1;
#N canvas 212 36 450 300 (subpatch) 0;
#X array kick 19669 float 0;
#X coords 0 1 19668 -1 300 100 1 0 0;
#X restore 67 674 graph;
#X obj 248 599 soundfiler;
#X obj 249 543 bng 15 250 50 0 empty empty empty 17 7 0 10 -262144
-1 -1;
#X obj 249 516 loadbang;
#X floatatom 248 623 15 0 0 0 - - -, f 15;
#X msg 249 572 read -resize dryrim.wav rim;
#X obj 323 227 tabplay~ kick;
#X obj 179 347 *~;
#X obj 170 392 dac~;
#X msg 216 197 stop;
#X obj 179 242 tabplay~ rim;
#X obj 334 103 f;
#X obj 383 98 + 1, f 4;
#X msg 397 199 stop;
#X obj 344 151 select 0 1 2 3 4 5 6;
#X obj 361 127 mod 8;
#X obj 147 104 f;
#X obj 176 104 + 1, f 4;
#X obj 137 157 select 0 1 2;
#X obj 145 131 mod 4;
#X obj 202 303 hsl 128 15 0 1 0 0 empty empty empty -2 -8 0 10 -262144
-1 -1 7620 1;
#X obj 580 112 f;
#X obj 609 112 + 1, f 4;
#X floatatom 637 278 5 0 0 0 - - -, f 5;
#X obj 649 332 osc~;
#X floatatom 597 298 5 0 0 0 - - -, f 5;
#X obj 596 335 osc~;
#X obj 620 402 dac~;
#X obj 611 369 *~;
#X obj 720 353 hsl 128 15 0 1 0 0 empty empty empty -2 -8 0 10 -262144
-1 -1 1905 1;
#X msg 552 220 329.63;
#X msg 528 240 261.63;
#X obj 160 71 metro 400;
#X obj 343 68 metro 200;
#X msg 610 220 246.94;
#X msg 586 240 196;
#X obj 1017 355 *~;
#X obj 1013 386 dac~;
#X obj 922 109 f;
#X obj 971 104 + 1, f 4;
#X obj 901 163 select 0 1 2 3 4 5 6;
#X obj 949 133 mod 8;
#X obj 931 74 metro 200;
#X obj 1016 324 osc~;
#X obj 578 139 mod 8;
#X obj 570 169 select 0 1 2 3 4 5 6;
#X msg 647 239 261.63;
#X msg 671 219 220;
#X msg 737 210 164.81;
#X msg 712 241 196;
#X obj 593 79 metro 1600;
#X msg 860 212 659.25;
#X floatatom 958 296 5 0 0 0 - - -, f 5;
#X msg 932 226 587.33;
#X msg 1009 223 659.25;
#X obj 1078 336 hsl 128 15 0 1 0 0 empty empty empty -2 -8 0 10 -262144
-1 -1 0 1;
#X obj 1379 343 *~;
#X obj 1375 374 dac~;
#X obj 1284 97 f;
#X obj 1333 92 + 1, f 4;
#X obj 1263 151 select 0 1 2 3 4 5 6;
#X obj 1311 121 mod 8;
#X obj 1293 62 metro 200;
#X obj 1378 312 osc~;
#X msg 1178 201 659.25;
#X floatatom 1320 284 5 0 0 0 - - -, f 5;
#X msg 1235 218 587.33;
#X obj 1441 378 hsl 128 15 0 1 0 0 empty empty empty -2 -8 0 10 -262144
-1 -1 0 1;
#X msg 1296 202 523.25;
#X msg 1353 207 493.88;
#X obj 1725 348 *~;
#X obj 1721 379 dac~;
#X obj 1630 102 f;
#X obj 1679 97 + 1, f 4;
#X obj 1609 156 select 0 1 2 3 4 5 6;
#X obj 1657 126 mod 8;
#X obj 1639 67 metro 200;
#X obj 1724 317 osc~;
#X floatatom 1666 289 5 0 0 0 - - -, f 5;
#X obj 1571 325 hsl 128 15 0 1 0 0 empty empty empty -2 -8 0 10 -262144
-1 -1 0 1;
#X msg 1568 205 523.25;
#X msg 1640 219 493.88;
#X msg 1717 216 523.25;
#X obj 2031 712 *~;
#X obj 2027 743 dac~;
#X obj 1936 466 f;
#X obj 1985 461 + 1, f 4;
#X obj 1915 520 select 0 1 2 3 4 5 6;
#X obj 1963 490 mod 8;
#X obj 1945 431 metro 200;
#X obj 2030 681 osc~;
#X floatatom 1972 653 5 0 0 0 - - -, f 5;
#X obj 1869 689 hsl 128 15 0 1 0 0 empty empty empty -2 -8 0 10 -262144
-1 -1 0 1;
#X msg 1874 569 523.25;
#X msg 1946 583 493.88;
#X msg 2023 580 523.25;
#X msg 2085 576 587.33;
#X msg 1779 212 392;
#X msg 1071 219 698.46;
#X text 129 772 Samples from: sampleswap.org. Used for educational
purposes;
#X msg 69 571 read -resize kick2.wav kick;
#X obj 344 287 lop~ 200;
#X obj 1011 -95 metro 1600;
#X floatatom 1040 -26 5 0 0 0 - - -, f 5;
#X msg 1085 -76 seed 1;
#X obj 1114 434 metro 1600;
#X floatatom 1143 503 5 0 0 0 - - -, f 5;
#X msg 1188 453 seed 1;
#X obj 1112 -114 loadbang;
#X obj 1211 421 loadbang;
#X obj 262 255 loadbang;
#X msg 752 315 0.15;
#X obj 721 -70 delay;
#X msg 723 -97 6400;
#X obj 764 287 loadbang;
#X obj 828 -85 delay;
#X msg 830 -112 19200;
#X obj 868 776 *~;
#X obj 864 807 dac~;
#X obj 773 530 f;
#X obj 822 525 + 1, f 4;
#X obj 752 584 select 0 1 2 3 4 5 6;
#X obj 800 554 mod 8;
#X obj 782 495 metro 200;
#X obj 867 745 osc~;
#X floatatom 809 717 5 0 0 0 - - -, f 5;
#X obj 714 753 hsl 128 15 0 1 0 0 empty empty empty -2 -8 0 10 -262144
-1 -1 0 1;
#X msg 711 633 523.25;
#X msg 783 647 493.88;
#X msg 860 644 523.25;
#X msg 922 640 392;
#X obj 1116 989 *~;
#X obj 1112 1020 dac~;
#X obj 1021 743 f;
#X obj 1070 738 + 1, f 4;
#X obj 1006 794 select 0 1 2 3 4 5 6;
#X obj 1048 767 mod 8;
#X obj 1030 708 metro 200;
#X obj 1115 958 osc~;
#X floatatom 1057 930 5 0 0 0 - - -, f 5;
#X obj 962 966 hsl 128 15 0 1 0 0 empty empty empty -2 -8 0 10 -262144
-1 -1 0 1;
#X msg 959 846 783.99;
#X msg 1015 857 698.46;
#X msg 1073 857 659.25;
#X msg 1129 856 587.33;
#X obj 1382 1031 *~;
#X obj 1378 1062 dac~;
#X obj 1287 785 f;
#X obj 1336 780 + 1, f 4;
#X obj 1272 836 select 0 1 2 3 4 5 6;
#X obj 1314 809 mod 8;
#X obj 1296 750 metro 200;
#X obj 1381 1000 osc~;
#X floatatom 1323 972 5 0 0 0 - - -, f 5;
#X obj 1228 1008 hsl 128 15 0 1 0 0 empty empty empty -2 -8 0 10 -262144
-1 -1 0 1;
#X msg 1281 899 659.25;
#X msg 1339 899 587.33;
#X msg 1395 898 659.25;
#X msg 1448 902 523.25;
#X msg 1225 888 698.46;
#X obj 933 1316 *~;
#X obj 929 1347 dac~;
#X obj 838 1070 f;
#X obj 887 1065 + 1, f 4;
#X obj 823 1121 select 0 1 2 3 4 5 6;
#X obj 865 1094 mod 8;
#X obj 847 1035 metro 200;
#X obj 932 1285 osc~;
#X floatatom 874 1257 5 0 0 0 - - -, f 5;
#X obj 779 1290 hsl 128 15 0 1 0 0 empty empty empty -2 -8 0 10 -262144
-1 -1 1270 1;
#X msg 819 1172 659.25;
#X msg 894 1173 783.99;
#X obj 1291 1380 *~;
#X obj 1287 1411 dac~;
#X obj 1196 1134 f;
#X obj 1245 1129 + 1, f 4;
#X obj 1184 1191 select 0 1 2 3 4 5 6;
#X obj 1223 1158 mod 8;
#X obj 1205 1099 metro 200;
#X obj 1290 1349 osc~;
#X floatatom 1232 1321 5 0 0 0 - - -, f 5;
#X obj 1137 1357 hsl 128 15 0 1 0 0 empty empty empty -2 -8 0 10 -262144
-1 -1 0 1;
#X msg 1180 1250 783.99;
#X msg 1134 1237 880;
#X msg 1241 1249 659.25;
#X msg 1311 1243 587.33;
#X obj 1570 1425 *~;
#X obj 1566 1456 dac~;
#X obj 1475 1179 f;
#X obj 1524 1174 + 1, f 4;
#X obj 1463 1236 select 0 1 2 3 4 5 6;
#X obj 1502 1203 mod 8;
#X obj 1484 1144 metro 200;
#X obj 1569 1394 osc~;
#X floatatom 1511 1366 5 0 0 0 - - -, f 5;
#X obj 1416 1402 hsl 128 15 0 1 0 0 empty empty empty -2 -8 0 10 -262144
-1 -1 0 1;
#X msg 1407 1281 1046.5;
#X msg 1459 1295 783.99;
#X msg 1520 1294 880;
#X msg 1563 1296 659.25;
#X obj 1199 590 send mute;
#X msg 1204 567 0;
#X obj 1057 547 delay 1;
#X obj 1108 275 receive mute;
#X obj 1419 330 receive mute;
#X obj 1530 276 receive mute;
#X obj 1840 660 receive mute;
#X obj 1180 954 receive mute;
#X obj 908 909 receive mute;
#X obj 693 703 receive mute;
#X obj 746 1261 receive mute;
#X obj 1101 1319 receive mute;
#X obj 1400 1370 receive mute;
#X obj 1047 617 delay 1;
#X obj 1139 579 delay 1;
#X obj 1048 590 send play0;
#X obj 1040 660 send play1;
#X obj 1130 622 send play2;
#X obj 1105 307 receive play0;
#X obj 1438 352 receive play1;
#X obj 1574 304 receive play2;
#X obj 1138 653 delay 1;
#X obj 1129 696 send play3;
#X obj 1821 633 receive play3;
#X obj 712 730 receive play4;
#X obj 950 935 receive play5;
#X obj 1221 978 receive play6;
#X obj 736 1232 receive play7;
#X obj 1065 1299 receive play8;
#X obj 1366 1347 receive play9;
#X obj 1218 625 delay 1;
#X obj 1217 699 delay 1;
#X obj 1282 580 delay 1;
#X obj 1281 654 delay 1;
#X obj 1353 557 delay 1;
#X obj 1352 631 delay 1;
#X obj 1209 668 send play4;
#X obj 1209 742 send play5;
#X obj 1272 623 send play6;
#X obj 1272 697 send play7;
#X obj 1344 600 send play8;
#X obj 1343 674 send play9;
#X obj 2086 1076 *~;
#X obj 2082 1107 dac~;
#X obj 1991 830 f;
#X obj 2040 825 + 1, f 4;
#X obj 1976 881 select 0 1 2 3 4 5 6;
#X obj 2018 854 mod 8;
#X obj 2000 795 metro 200;
#X obj 2085 1045 osc~;
#X floatatom 2027 1017 5 0 0 0 - - -, f 5;
#X obj 1932 1050 hsl 128 15 0 1 0 0 empty empty empty -2 -8 0 10 -262144
-1 -1 0 1;
#X obj 1899 1021 receive mute;
#X obj 1803 1112 *~;
#X obj 1799 1143 dac~;
#X obj 1708 866 f;
#X obj 1757 861 + 1, f 4;
#X obj 1693 917 select 0 1 2 3 4 5 6;
#X obj 1735 890 mod 8;
#X obj 1717 831 metro 200;
#X obj 1802 1081 osc~;
#X floatatom 1744 1053 5 0 0 0 - - -, f 5;
#X obj 1649 1086 hsl 128 15 0 1 0 0 empty empty empty -2 -8 0 10 -262144
-1 -1 0 1;
#X obj 1616 1057 receive mute;
#X msg 1648 972 440;
#X msg 1764 969 783.99;
#X msg 1706 973 659.25;
#X msg 1816 971 1046.5;
#X msg 1916 919 493.88;
#X msg 1987 921 587.33;
#X msg 1952 944 523.25;
#X msg 2025 952 659.25;
#X msg 2047 933 698.46;
#X obj 1606 1028 receive play10;
#X obj 1889 992 receive play11;
#X msg 2099 935 1046.5;
#X obj 1425 591 delay 1;
#X obj 1424 665 delay 1;
#X obj 1416 634 send play10;
#X obj 1415 708 send play11;
#X msg 1053 569 0.1;
#X msg 1043 639 0.1;
#X msg 1135 601 0.1;
#X msg 1134 675 0.1;
#X msg 1214 647 0.1;
#X msg 1213 721 0.1;
#X msg 1348 653 0.1;
#X msg 1278 602 0.1;
#X msg 1277 676 0.1;
#X msg 1349 579 0.1;
#X msg 1421 613 0.1;
#X obj 2177 1464 *~;
#X obj 2173 1495 dac~;
#X obj 2082 1218 f;
#X obj 2131 1213 + 1, f 4;
#X obj 2073 1274 select 0 1 2 3 4 5 6;
#X obj 2109 1242 mod 8;
#X obj 2091 1183 metro 200;
#X obj 2176 1433 osc~;
#X floatatom 2118 1405 5 0 0 0 - - -, f 5;
#X obj 2023 1441 hsl 128 15 0 1 0 0 empty empty empty -2 -8 0 10 -262144
-1 -1 0 1;
#X obj 2002 1391 receive mute;
#X msg 2224 1337 783.99;
#X obj 1800 1472 *~;
#X obj 1796 1503 dac~;
#X obj 1705 1226 f;
#X obj 1754 1221 + 1, f 4;
#X obj 1690 1286 select 0 1 2 3 4 5 6;
#X obj 1732 1250 mod 8;
#X obj 1714 1191 metro 200;
#X obj 1799 1441 osc~;
#X floatatom 1741 1413 5 0 0 0 - - -, f 5;
#X obj 1646 1449 hsl 128 15 0 1 0 0 empty empty empty -2 -8 0 10 -262144
-1 -1 0 1;
#X obj 1625 1399 receive mute;
#X msg 1643 1329 440;
#X msg 1715 1343 659.25;
#X msg 1783 1344 587.33;
#X msg 1847 1345 783.99;
#X msg 2020 1321 880;
#X msg 2092 1335 783.99;
#X msg 2160 1336 659.25;
#X obj 1644 1426 receive play12;
#X obj 2021 1417 receive play13;
#X obj 1153 532 select 0 1 2 3 4 5 6 7 8 9 10 11 12;
#X obj 1513 593 delay 1;
#X obj 1512 667 delay 1;
#X msg 1509 615 0.1;
#X obj 1504 636 send play12;
#X obj 1503 710 send play13;
#X obj 1034 -3 select 0 1 2 3 4 5 6 7 8 9 10 11 12;
#X obj 1033 -50 random 14;
#X obj 1137 479 random 14;
#X msg 1420 687 0.1;
#X msg 1508 689 0.1;
#X msg 233 278 0.6;
#X text 216 322 Drum Volume;
#X text 718 373 Chord Volume;
#X connect 0 0 1 0;
#X connect 2 0 8 0;
#X connect 3 0 110 0;
#X connect 4 0 3 0;
#X connect 5 0 6 0;
#X connect 5 0 6 1;
#X connect 9 0 42 0;
#X connect 9 0 43 0;
#X connect 9 0 123 0;
#X connect 9 0 126 0;
#X connect 11 0 14 0;
#X connect 12 0 15 0;
#X connect 13 0 12 0;
#X connect 15 0 11 0;
#X connect 16 0 111 0;
#X connect 17 0 18 0;
#X connect 17 0 18 1;
#X connect 19 0 20 0;
#X connect 20 0 17 0;
#X connect 21 0 22 0;
#X connect 21 0 25 0;
#X connect 22 0 21 1;
#X connect 23 0 16 0;
#X connect 24 0 16 0;
#X connect 24 1 16 0;
#X connect 24 2 23 0;
#X connect 24 3 16 0;
#X connect 24 4 23 0;
#X connect 25 0 24 0;
#X connect 26 0 27 0;
#X connect 26 0 29 0;
#X connect 27 0 26 1;
#X connect 28 0 19 0;
#X connect 28 2 20 0;
#X connect 29 0 28 0;
#X connect 30 0 17 1;
#X connect 30 0 5 1;
#X connect 31 0 32 0;
#X connect 31 0 54 0;
#X connect 32 0 31 1;
#X connect 33 0 34 0;
#X connect 34 0 38 0;
#X connect 35 0 36 0;
#X connect 36 0 38 0;
#X connect 38 0 37 0;
#X connect 38 0 37 1;
#X connect 39 0 38 1;
#X connect 40 0 33 0;
#X connect 41 0 35 0;
#X connect 42 0 26 0;
#X connect 43 0 21 0;
#X connect 44 0 33 0;
#X connect 45 0 35 0;
#X connect 46 0 47 0;
#X connect 46 0 47 1;
#X connect 48 0 49 0;
#X connect 48 0 51 0;
#X connect 49 0 48 1;
#X connect 50 0 61 0;
#X connect 50 2 63 0;
#X connect 50 3 64 0;
#X connect 50 5 63 0;
#X connect 50 6 64 0;
#X connect 50 7 108 0;
#X connect 51 0 50 0;
#X connect 52 0 48 0;
#X connect 53 0 46 0;
#X connect 54 0 55 0;
#X connect 55 0 40 0;
#X connect 55 0 41 0;
#X connect 55 2 44 0;
#X connect 55 2 45 0;
#X connect 55 4 57 0;
#X connect 55 4 56 0;
#X connect 55 6 58 0;
#X connect 55 6 59 0;
#X connect 56 0 35 0;
#X connect 57 0 35 0;
#X connect 57 0 33 0;
#X connect 58 0 33 0;
#X connect 59 0 35 0;
#X connect 60 0 31 0;
#X connect 61 0 62 0;
#X connect 62 0 53 0;
#X connect 63 0 62 0;
#X connect 64 0 62 0;
#X connect 65 0 46 1;
#X connect 66 0 67 0;
#X connect 66 0 67 1;
#X connect 68 0 69 0;
#X connect 68 0 71 0;
#X connect 69 0 68 1;
#X connect 70 0 74 0;
#X connect 70 2 76 0;
#X connect 70 4 78 0;
#X connect 70 6 79 0;
#X connect 71 0 70 0;
#X connect 72 0 68 0;
#X connect 73 0 66 0;
#X connect 74 0 75 0;
#X connect 75 0 73 0;
#X connect 76 0 75 0;
#X connect 77 0 66 1;
#X connect 78 0 75 0;
#X connect 79 0 75 0;
#X connect 80 0 81 0;
#X connect 80 0 81 1;
#X connect 82 0 83 0;
#X connect 82 0 85 0;
#X connect 83 0 82 1;
#X connect 84 0 90 0;
#X connect 84 2 91 0;
#X connect 84 3 92 0;
#X connect 84 5 91 0;
#X connect 84 6 92 0;
#X connect 84 7 107 0;
#X connect 85 0 84 0;
#X connect 86 0 82 0;
#X connect 87 0 80 0;
#X connect 88 0 87 0;
#X connect 89 0 80 1;
#X connect 90 0 88 0;
#X connect 91 0 88 0;
#X connect 92 0 88 0;
#X connect 93 0 94 0;
#X connect 93 0 94 1;
#X connect 95 0 96 0;
#X connect 95 0 98 0;
#X connect 96 0 95 1;
#X connect 97 0 103 0;
#X connect 97 2 104 0;
#X connect 97 3 105 0;
#X connect 97 5 104 0;
#X connect 97 6 105 0;
#X connect 97 7 106 0;
#X connect 98 0 97 0;
#X connect 99 0 95 0;
#X connect 100 0 93 0;
#X connect 101 0 100 0;
#X connect 102 0 93 1;
#X connect 103 0 101 0;
#X connect 104 0 101 0;
#X connect 105 0 101 0;
#X connect 106 0 101 0;
#X connect 107 0 88 0;
#X connect 108 0 62 0;
#X connect 110 0 2 0;
#X connect 111 0 5 0;
#X connect 112 0 340 0;
#X connect 113 0 339 0;
#X connect 114 0 340 0;
#X connect 115 0 341 0;
#X connect 116 0 333 0;
#X connect 117 0 341 0;
#X connect 118 0 114 0;
#X connect 119 0 117 0;
#X connect 120 0 344 0;
#X connect 121 0 39 0;
#X connect 122 0 60 0;
#X connect 123 0 122 0;
#X connect 124 0 121 0;
#X connect 125 0 112 0;
#X connect 125 0 115 0;
#X connect 126 0 125 0;
#X connect 127 0 128 0;
#X connect 127 0 128 1;
#X connect 129 0 130 0;
#X connect 129 0 132 0;
#X connect 130 0 129 1;
#X connect 131 0 137 0;
#X connect 131 2 138 0;
#X connect 131 3 139 0;
#X connect 131 5 138 0;
#X connect 131 6 139 0;
#X connect 131 7 140 0;
#X connect 132 0 131 0;
#X connect 133 0 129 0;
#X connect 134 0 127 0;
#X connect 135 0 134 0;
#X connect 136 0 127 1;
#X connect 137 0 135 0;
#X connect 138 0 135 0;
#X connect 139 0 135 0;
#X connect 140 0 135 0;
#X connect 141 0 142 0;
#X connect 141 0 142 1;
#X connect 143 0 144 0;
#X connect 143 0 146 0;
#X connect 144 0 143 1;
#X connect 145 0 151 0;
#X connect 145 2 152 0;
#X connect 145 4 153 0;
#X connect 145 5 154 0;
#X connect 146 0 145 0;
#X connect 147 0 143 0;
#X connect 148 0 141 0;
#X connect 149 0 148 0;
#X connect 150 0 141 1;
#X connect 151 0 149 0;
#X connect 152 0 149 0;
#X connect 153 0 149 0;
#X connect 154 0 149 0;
#X connect 155 0 156 0;
#X connect 155 0 156 1;
#X connect 157 0 158 0;
#X connect 157 0 160 0;
#X connect 158 0 157 1;
#X connect 159 0 169 0;
#X connect 159 2 165 0;
#X connect 159 4 166 0;
#X connect 159 5 167 0;
#X connect 159 6 168 0;
#X connect 160 0 159 0;
#X connect 161 0 157 0;
#X connect 162 0 155 0;
#X connect 163 0 162 0;
#X connect 164 0 155 1;
#X connect 165 0 163 0;
#X connect 166 0 163 0;
#X connect 167 0 163 0;
#X connect 168 0 163 0;
#X connect 169 0 163 0;
#X connect 170 0 171 0;
#X connect 170 0 171 1;
#X connect 172 0 173 0;
#X connect 172 0 175 0;
#X connect 173 0 172 1;
#X connect 174 0 180 0;
#X connect 174 4 181 0;
#X connect 175 0 174 0;
#X connect 176 0 172 0;
#X connect 177 0 170 0;
#X connect 178 0 177 0;
#X connect 179 0 170 1;
#X connect 180 0 178 0;
#X connect 181 0 178 0;
#X connect 182 0 183 0;
#X connect 182 0 183 1;
#X connect 184 0 185 0;
#X connect 184 0 187 0;
#X connect 185 0 184 1;
#X connect 186 0 193 0;
#X connect 186 3 192 0;
#X connect 186 4 194 0;
#X connect 186 7 195 0;
#X connect 187 0 186 0;
#X connect 188 0 184 0;
#X connect 189 0 182 0;
#X connect 190 0 189 0;
#X connect 191 0 182 1;
#X connect 192 0 190 0;
#X connect 193 0 190 0;
#X connect 194 0 190 0;
#X connect 195 0 190 0;
#X connect 196 0 197 0;
#X connect 196 0 197 1;
#X connect 198 0 199 0;
#X connect 198 0 201 0;
#X connect 199 0 198 1;
#X connect 200 0 206 0;
#X connect 200 3 207 0;
#X connect 200 4 208 0;
#X connect 200 6 209 0;
#X connect 201 0 200 0;
#X connect 202 0 198 0;
#X connect 203 0 196 0;
#X connect 204 0 203 0;
#X connect 205 0 196 1;
#X connect 206 0 204 0;
#X connect 207 0 204 0;
#X connect 208 0 204 0;
#X connect 209 0 204 0;
#X connect 211 0 210 0;
#X connect 212 0 290 0;
#X connect 213 0 65 0;
#X connect 214 0 77 0;
#X connect 215 0 89 0;
#X connect 216 0 102 0;
#X connect 217 0 164 0;
#X connect 218 0 150 0;
#X connect 219 0 136 0;
#X connect 220 0 179 0;
#X connect 221 0 191 0;
#X connect 222 0 205 0;
#X connect 223 0 291 0;
#X connect 224 0 292 0;
#X connect 228 0 65 0;
#X connect 229 0 77 0;
#X connect 230 0 89 0;
#X connect 231 0 293 0;
#X connect 233 0 102 0;
#X connect 234 0 136 0;
#X connect 235 0 150 0;
#X connect 236 0 164 0;
#X connect 237 0 179 0;
#X connect 238 0 191 0;
#X connect 239 0 205 0;
#X connect 240 0 294 0;
#X connect 241 0 295 0;
#X connect 242 0 297 0;
#X connect 243 0 298 0;
#X connect 244 0 299 0;
#X connect 245 0 296 0;
#X connect 252 0 253 0;
#X connect 252 0 253 1;
#X connect 254 0 255 0;
#X connect 254 0 257 0;
#X connect 255 0 254 1;
#X connect 256 0 278 0;
#X connect 256 1 280 0;
#X connect 256 2 279 0;
#X connect 256 3 281 0;
#X connect 256 4 282 0;
#X connect 256 6 285 0;
#X connect 257 0 256 0;
#X connect 258 0 254 0;
#X connect 259 0 252 0;
#X connect 260 0 259 0;
#X connect 261 0 252 1;
#X connect 262 0 261 0;
#X connect 263 0 264 0;
#X connect 263 0 264 1;
#X connect 265 0 266 0;
#X connect 265 0 268 0;
#X connect 266 0 265 1;
#X connect 267 0 274 0;
#X connect 267 2 276 0;
#X connect 267 4 275 0;
#X connect 267 6 277 0;
#X connect 268 0 267 0;
#X connect 269 0 265 0;
#X connect 270 0 263 0;
#X connect 271 0 270 0;
#X connect 272 0 263 1;
#X connect 273 0 272 0;
#X connect 274 0 271 0;
#X connect 275 0 271 0;
#X connect 276 0 271 0;
#X connect 277 0 271 0;
#X connect 278 0 260 0;
#X connect 279 0 260 0;
#X connect 280 0 260 0;
#X connect 281 0 260 0;
#X connect 282 0 260 0;
#X connect 283 0 272 0;
#X connect 284 0 261 0;
#X connect 285 0 260 0;
#X connect 286 0 300 0;
#X connect 287 0 342 0;
#X connect 290 0 225 0;
#X connect 291 0 226 0;
#X connect 292 0 227 0;
#X connect 293 0 232 0;
#X connect 294 0 246 0;
#X connect 295 0 247 0;
#X connect 296 0 251 0;
#X connect 297 0 248 0;
#X connect 298 0 249 0;
#X connect 299 0 250 0;
#X connect 300 0 288 0;
#X connect 301 0 302 0;
#X connect 301 0 302 1;
#X connect 303 0 304 0;
#X connect 303 0 306 0;
#X connect 304 0 303 1;
#X connect 305 0 328 0;
#X connect 305 2 329 0;
#X connect 305 4 330 0;
#X connect 305 5 329 0;
#X connect 305 6 330 0;
#X connect 306 0 305 0;
#X connect 307 0 303 0;
#X connect 308 0 301 0;
#X connect 309 0 308 0;
#X connect 310 0 301 1;
#X connect 311 0 310 0;
#X connect 312 0 309 0;
#X connect 313 0 314 0;
#X connect 313 0 314 1;
#X connect 315 0 316 0;
#X connect 315 0 318 0;
#X connect 316 0 315 1;
#X connect 317 0 324 0;
#X connect 317 2 325 0;
#X connect 317 4 326 0;
#X connect 317 5 325 0;
#X connect 317 6 327 0;
#X connect 318 0 317 0;
#X connect 319 0 315 0;
#X connect 320 0 313 0;
#X connect 321 0 320 0;
#X connect 322 0 313 1;
#X connect 323 0 322 0;
#X connect 324 0 321 0;
#X connect 325 0 321 0;
#X connect 326 0 321 0;
#X connect 327 0 321 0;
#X connect 328 0 309 0;
#X connect 329 0 309 0;
#X connect 330 0 309 0;
#X connect 331 0 322 0;
#X connect 332 0 310 0;
#X connect 333 0 211 0;
#X connect 333 0 212 0;
#X connect 333 1 211 0;
#X connect 333 1 223 0;
#X connect 333 2 211 0;
#X connect 333 2 224 0;
#X connect 333 3 211 0;
#X connect 333 3 231 0;
#X connect 333 4 211 0;
#X connect 333 4 240 0;
#X connect 333 5 211 0;
#X connect 333 5 241 0;
#X connect 333 6 211 0;
#X connect 333 6 242 0;
#X connect 333 7 211 0;
#X connect 333 7 243 0;
#X connect 333 8 211 0;
#X connect 333 8 244 0;
#X connect 333 9 211 0;
#X connect 333 9 245 0;
#X connect 333 10 211 0;
#X connect 333 10 286 0;
#X connect 333 11 211 0;
#X connect 333 11 287 0;
#X connect 333 12 211 0;
#X connect 333 12 334 0;
#X connect 333 13 211 0;
#X connect 333 13 335 0;
#X connect 334 0 336 0;
#X connect 335 0 343 0;
#X connect 336 0 337 0;
#X connect 339 0 52 0;
#X connect 339 1 72 0;
#X connect 339 2 86 0;
#X connect 339 3 99 0;
#X connect 339 4 133 0;
#X connect 339 5 147 0;
#X connect 339 6 161 0;
#X connect 339 7 176 0;
#X connect 339 8 188 0;
#X connect 339 9 202 0;
#X connect 339 10 269 0;
#X connect 339 11 258 0;
#X connect 339 12 319 0;
#X connect 339 13 307 0;
#X connect 340 0 113 0;
#X connect 341 0 116 0;
#X connect 342 0 289 0;
#X connect 343 0 338 0;
#X connect 344 0 30 0;
