#N canvas -8 -8 1920 997 10;
#X text 19 16 OSC intro;
#X text 27 50 OSC -> built on top of UDP;
#X text 23 79 Need to set IP address + ports;
#X text 25 107 also special OSC address to set;
#X obj 815 258 oscformat cat horse pig;
#X obj 816 320 list prepend send;
#X obj 816 339 list trim;
#X obj 625 373 netsend -u -b;
#X text 716 371 <-- who needs IRC!?;
#X floatatom 787 193 5 0 0 0 - - -, f 5;
#X msg 860 95 1 2 3;
#X msg 355 301 connect localhost 8000;
#X msg 505 309 connect 127.0.0.1;
#X msg 335 340 disconnect;
#X msg 978 165 set dog ferret;
#X msg 1011 200 set mouse banana;
#X obj 644 425 list trim;
#X msg 30 198 listen 8000;
#X msg 68 235 listen 0;
#X obj 32 264 netreceive -u -b;
#X obj 34 386 oscparse;
#X obj 18 425 print;
#X msg 921 124 4 5 weasel 6 7 rat;
#X text 381 266 localhost within my PC \; not over local, f 25;
#X text 956 147 set the thingy that gets prepended to the message;
#X obj 32 159 loadbang;
#X obj 358 233 loadbang;
#X obj 20 1243 vsl 15 128 0 127 0 0 empty empty empty 0 -9 0 10 -262144
-1 -1 0 1;
#X obj 1306 18 hsl 128 15 0 127 0 0 empty empty empty -2 -8 0 10 -262144
-1 -1 0 1;
#X text 847 49 EXAMPLE EXAMPLE EXAMPLE EXAMPLE EXAMPLE;
#X obj 569 190 list append;
#X text 647 89 (Dist \, Dir.x \, Dir.z);
#X floatatom 645 146 5 0 0 0 - - -, f 5;
#X floatatom 687 149 5 0 0 0 - - -, f 5;
#X floatatom 734 155 5 0 0 0 - - -, f 5;
#X obj 526 108 oscformat thunderDistDir;
#X obj 570 220 list prepend send;
#X obj 570 239 list trim;
#X obj 514 67 bng 15 250 50 0 empty empty empty 17 7 0 10 -262144 -1
-1;
#X obj 822 290 list append 452.3;
#X symbolatom 297 1157 10 0 0 0 - - -, f 10;
#X floatatom 226 1210 5 0 0 0 - - -, f 5;
#X floatatom 272 1210 5 0 0 0 - - -, f 5;
#X obj 83 1128 unpack f f f;
#X text 89 1104 messageTypeFlag \, float1 \, float2;
#X floatatom 89 1176 5 0 0 0 - - -, f 5;
#X obj 93 1225 route 0 1, f 14;
#X obj 72 1247 bng 15 250 50 0 empty empty empty 17 7 0 10 -262144
-1 -1;
#X obj 114 1249 bng 15 250 50 0 empty empty empty 17 7 0 10 -262144
-1 -1;
#X obj 183 1248 bng 15 250 50 0 empty empty empty 17 7 0 10 -262144
-1 -1;
#X obj 68 1337 s crescendoForXSec;
#X obj 151 1302 s thunderMakeFromHere;
#X obj 210 1250 print oops;
#X text 312 1209 <- how do I send these?;
#X text 647 189 does not work;
#X obj 44 1094 s strike;
#X text 33 1066 UNUSED UNUSED UNUSED UNUSED;
#X obj 70 415 list trim;
#X floatatom 287 627 5 0 0 0 - - -, f 5;
#X obj 121 438 route unity;
#X obj 261 469 route trigger;
#X msg 183 400 unity triger 1200;
#X obj 375 512 bng 15 250 50 0 empty empty empty 17 7 0 10 -262144
-1 -1;
#X msg 439 493 0;
#X obj 409 533 f;
#X obj 446 534 + 1;
#X obj 415 618 select 0 1 2 3;
#X obj 407 574 % 4;
#X floatatom 446 596 5 0 0 0 - - -, f 5;
#X obj 382 595 bng 15 250 50 0 empty empty empty 17 7 0 10 -262144
-1 -1;
#X msg 369 644 0;
#X msg 404 641 1;
#X msg 436 647 2;
#X msg 469 653 3;
#X obj 284 795 route 0 1 2 3;
#X floatatom 301 716 5 0 0 0 - - -, f 5;
#X floatatom 352 714 5 0 0 0 - - -, f 5;
#X obj 304 691 pipe f f 400;
#X obj 323 493 pipe 10;
#X obj 303 760 pack f f;
#X obj 249 819 bng 15 250 50 0 empty empty empty 17 7 0 10 -262144
-1 -1;
#X obj 277 829 bng 15 250 50 0 empty empty empty 17 7 0 10 -262144
-1 -1;
#X obj 322 828 bng 15 250 50 0 empty empty empty 17 7 0 10 -262144
-1 -1;
#X obj 359 824 bng 15 250 50 0 empty empty empty 17 7 0 10 -262144
-1 -1;
#N canvas -7 0 1209 988 thunderInstance2 0;
#X obj 1157 684 s go2;
#X obj 1157 684 s go2;
#X obj 1157 684 s go2;
#X obj 1157 684 s go2;
#X obj 1157 684 s go2;
#X obj 1157 684 s go2;
#X obj 1157 684 s go2;
#N canvas 953 0 958 988 afterimage 0;
#X obj 1 114 noise~;
#X obj 16 176 noise~;
#X obj 1 199 *~;
#X obj 1 135 lop~ 3;
#X obj 1 220 clip~ -1 1;
#X obj 52 68 line;
#X obj 52 109 + 3;
#X obj 52 89 * 30;
#X obj 1 156 *~ 80;
#X obj 117 67 line;
#X obj 9 277 *~;
#X msg 52 48 1 \, 0 600;
#X obj 85 1 inlet;
#X obj 2 316 outlet~;
#X text 145 243 orig bp~ 333 4;
#X text 140 25 orig del 200;
#X floatatom 212 85 5 0 0 0 - - -, f 5;
#X floatatom 259 158 8 0 0 0 - - -, f 8;
#X text 246 129 better fadeout;
#X obj 130 131 expr pow($f1 \, 2);
#X obj 2 296 *~ 0.1;
#X obj 85 23 del 120;
#X obj 66 243 bp~ 233 0.1;
#X msg 117 47 1 \, 0 7000;
#X connect 0 0 3 0;
#X connect 1 0 2 1;
#X connect 2 0 4 0;
#X connect 3 0 8 0;
#X connect 4 0 22 0;
#X connect 5 0 7 0;
#X connect 6 0 3 1;
#X connect 7 0 6 0;
#X connect 8 0 2 0;
#X connect 9 0 16 0;
#X connect 9 0 19 0;
#X connect 10 0 20 0;
#X connect 11 0 5 0;
#X connect 12 0 21 0;
#X connect 19 0 17 0;
#X connect 19 0 10 1;
#X connect 20 0 13 0;
#X connect 21 0 11 0;
#X connect 21 0 23 0;
#X connect 22 0 10 0;
#X connect 23 0 9 0;
#X restore 248 175 pd afterimage;
#X obj 272 397 distance;
#X obj 323 373 line;
#X obj 186 133 line;
#X obj 272 483 dac~;
#N canvas -8 -8 1920 997 box 0;
#X obj 319 51 switch~;
#X obj 319 29 inlet;
#X obj 1 7 udly 12000;
#X obj 11 17 udly 12000;
#X obj 21 27 udly 12000;
#X obj 31 37 udly 12000;
#X obj 41 47 udly 12000;
#X obj 51 57 udly 12000;
#X obj 61 67 udly 12000;
#X obj 71 77 udly 12000;
#X obj 81 87 udly 12000;
#X obj 91 97 udly 12000;
#X obj 101 107 udly 12000;
#X obj 111 117 udly 12000;
#X obj 121 127 udly 12000;
#X obj 131 137 udly 12000;
#X obj 141 147 udly 12000;
#X obj 151 157 udly 12000;
#X obj 161 167 udly 12000;
#X obj 171 177 udly 12000;
#X obj 181 187 udly 12000;
#X obj 191 197 udly 12000;
#X obj 201 207 udly 12000;
#X obj 211 217 udly 12000;
#X obj 221 227 udly 12000;
#X obj 231 237 udly 12000;
#X connect 1 0 0 0;
#X restore 465 219 pd box of delays;
#X obj 465 199 tgl 15 0 empty empty empty 0 -6 0 8 -262144 -1 -1 1
1;
#X obj 490 196 s shake;
#X obj 44 95 bng 15 250 50 0 empty empty empty 0 -6 0 8 -262144 -1
-1;
#X obj 186 155 * 2000;
#N canvas -8 -8 1920 997 rumble 0;
#X obj 17 110 noise~;
#X obj 33 314 -~ 0.5;
#X obj 33 339 *~;
#X obj 33 359 *~ -4;
#X obj 33 379 +~ 1;
#X obj 33 399 *~ 0.5;
#X obj 75 28 noise~;
#X obj 75 89 max~ 0;
#X obj 17 172 samphold~;
#X msg 124 210 0.54;
#X obj 75 151 phasor~;
#X obj 75 111 *~ 3000;
#X obj 17 419 *~;
#X obj 17 439 hip~ 100;
#X obj 17 192 rpole~ 0.99;
#X obj 17 212 *~ 0.04;
#X obj 75 131 +~ 1;
#X obj 81 -12 inlet density;
#X obj 17 131 lop~;
#X obj 17 152 lop~;
#X obj 75 68 lop~;
#X obj 75 48 lop~;
#X obj 1 480 outlet~;
#X obj 17 241 min~ 0;
#X obj 17 263 *~ -1;
#X obj 65 240 max~ 0;
#X obj 17 286 +~;
#X obj 1 28 vline~;
#X obj 1 459 *~;
#X obj 1 -12 inlet trig;
#X msg 1 8 1 50 \, 0 8000 50;
#X connect 0 0 18 0;
#X connect 1 0 2 0;
#X connect 1 0 2 1;
#X connect 2 0 3 0;
#X connect 3 0 4 0;
#X connect 4 0 5 0;
#X connect 5 0 12 1;
#X connect 6 0 21 0;
#X connect 7 0 11 0;
#X connect 8 0 14 0;
#X connect 10 0 8 1;
#X connect 11 0 16 0;
#X connect 12 0 13 0;
#X connect 13 0 28 1;
#X connect 14 0 15 0;
#X connect 15 0 25 0;
#X connect 15 0 23 0;
#X connect 16 0 10 0;
#X connect 17 0 20 1;
#X connect 17 0 21 1;
#X connect 17 0 18 1;
#X connect 17 0 19 1;
#X connect 18 0 19 0;
#X connect 19 0 8 0;
#X connect 20 0 7 0;
#X connect 21 0 20 0;
#X connect 23 0 24 0;
#X connect 24 0 26 0;
#X connect 25 0 26 1;
#X connect 26 0 1 0;
#X connect 26 0 12 0;
#X connect 27 0 28 0;
#X connect 28 0 22 0;
#X connect 29 0 30 0;
#X connect 30 0 27 0;
#X restore 128 177 pd rumble;
#N canvas 1203 0 708 988 strike 0;
#X obj 167 44 route 0 1 2 3;
#X obj 4 3 inlet;
#X obj 167 67 strike-sound;
#X floatatom 141 20 5 0 0 0 - - -, f 5;
#X obj 188 87 strike-sound;
#X obj 210 107 strike-sound;
#X obj 231 126 strike-sound;
#X obj 43 142 outlet~;
#X obj 49 84 strike-sound;
#X msg 32 51 0.01;
#X connect 0 0 2 0;
#X connect 0 1 4 0;
#X connect 0 2 5 0;
#X connect 0 3 6 0;
#X connect 1 0 3 0;
#X connect 1 0 9 0;
#X connect 8 0 7 0;
#X connect 9 0 8 0;
#X restore 11 178 pd strike sound;
#N canvas 953 0 958 988 deep 0;
#X obj 8 -8 noise~;
#X obj 7 161 *~;
#X obj 84 115 *~;
#X obj 84 49 del 1000;
#X obj 84 28 inlet;
#X obj 7 181 outlet~;
#X obj 84 91 vline~;
#X obj 8 12 lop~ 80;
#X obj 8 32 lop~ 80;
#X obj 8 52 hip~ 15;
#X obj 8 92 clip~ -1 1;
#X obj 8 72 *~ 12;
#X obj 8 112 lop~ 80;
#X obj 8 132 lop~ 80;
#X text 251 68 orig 1 2000 \, 0 20000 2000;
#X msg 84 70 1 2000 \, 0 5000 2000;
#X connect 0 0 7 0;
#X connect 1 0 5 0;
#X connect 2 0 1 1;
#X connect 3 0 15 0;
#X connect 4 0 3 0;
#X connect 6 0 2 0;
#X connect 6 0 2 1;
#X connect 7 0 8 0;
#X connect 8 0 9 0;
#X connect 9 0 11 0;
#X connect 10 0 12 0;
#X connect 11 0 10 0;
#X connect 12 0 13 0;
#X connect 13 0 1 0;
#X connect 15 0 6 0;
#X restore 350 172 pd deep;
#X obj 496 406 tgl 15 0 empty empty empty 17 7 0 10 -262144 -1 -1 0
1;
#X msg 496 426 \; pd dsp \$1;
#X text 277 101 Original File from: Andy Farnell's Designing Sound
;
#X obj 449 143 loadbang;
#X obj 513 360 key;
#X obj 491 383 select 32, f 10;
#X text 18 298 0.3 0.3 0.9 0.5 orignally;
#X msg 186 110 1 \, 0 9000;
#X obj 234 372 *~ 1;
#X floatatom 11 463 5 0 0 0 - - -, f 5;
#X obj 34 391 bng 15 250 50 0 empty empty empty 17 7 0 10 -262144 -1
-1;
#X obj 7 365 env~;
#X obj 13 424 random 1000;
#X obj 109 342 *~ 0.6;
#X floatatom 67 79 7 0 0 0 - - -, f 7;
#X obj 11 245 /~;
#X obj 787 153 loadbang;
#X msg 782 183 1;
#X floatatom 755 285 5 0 0 0 - - -, f 5;
#X obj 738 251 max;
#X text 779 74 max input is ~3100;
#X obj 170 240 /~;
#X obj 264 246 /~;
#X obj 365 246 /~;
#X obj 712 174 / 200;
#X floatatom 672 292 5 0 0 0 - - -, f 5;
#X obj 655 259 max;
#X obj 649 194 / 1000;
#X text 587 27 intensity at a distance x/Intensity at a distance y
= x^2/y^2 -> simplify here;
#X obj 38 51 inlet;
#X obj 79 102 s distQuiet2;
#X obj 13 271 throw~ out2;
#X obj 129 270 throw~ distance2;
#X obj 248 270 throw~ out2;
#X obj 350 269 throw~ distance2;
#X obj 84 455 catch~ la2;
#X obj 645 317 s div2;
#X obj 728 309 s strikeDiv2;
#X obj 695 66 r distQuiet2;
#X obj 36 222 r strikeDiv2;
#X obj 182 338 catch~ out2;
#X obj 272 308 catch~ distance2;
#X obj 323 328 r goIV2;
#X obj 128 154 r goII2;
#X obj 248 152 r goIII2;
#X obj 350 150 r goIV2;
#X obj 490 175 r goV2;
#X obj 608 382 s goV2;
#X obj 569 302 s goI2;
#X obj 573 322 s goII2;
#X obj 578 342 s goIII2;
#X obj 590 362 s goIV2;
#X obj 282 222 r div2;
#X obj 383 221 r div2;
#X obj 188 216 r div2;
#X obj 286 423 s~ udly2;
#X obj 76 389 delwrite~ shockEcho2 1000;
#X obj 106 414 delread~ shockEcho2 10;
#X obj 11 155 r goI2;
#X text 24 310 0.15 0.01 0.05 0.5 final;
#X obj 186 88 r goII2;
#X obj 368 398 catch~ ra2;
#X msg 86 43 214;
#X msg 118 46 556;
#X obj 129 198 *~ 0.01;
#X obj 11 198 *~ 0.05;
#X msg 149 52 3096;
#X obj 248 197 *~ 0.15, f 13;
#X msg 323 350 0 \, 1 6000;
#X text 385 346 orig 0 \, 1 12000;
#X obj 350 193 *~ 0.1;
#X text 12 321 0.05 0.01 0.15 0.1 finalV2;
#X connect 7 0 87 0;
#X connect 8 0 11 0;
#X connect 8 0 11 1;
#X connect 8 0 75 0;
#X connect 9 0 8 1;
#X connect 10 0 16 0;
#X connect 13 0 12 0;
#X connect 15 0 50 0;
#X connect 16 0 17 1;
#X connect 17 0 84 0;
#X connect 18 0 85 0;
#X connect 19 0 90 0;
#X connect 20 0 21 0;
#X connect 23 0 13 0;
#X connect 24 0 25 0;
#X connect 27 0 10 0;
#X connect 28 0 11 1;
#X connect 28 0 11 0;
#X connect 30 0 32 0;
#X connect 31 0 30 0;
#X connect 32 0 29 0;
#X connect 32 0 77 0;
#X connect 33 0 76 0;
#X connect 34 0 50 0;
#X connect 35 0 51 0;
#X connect 36 0 37 0;
#X connect 37 0 39 1;
#X connect 37 0 46 1;
#X connect 39 0 38 0;
#X connect 39 0 57 0;
#X connect 41 0 52 0;
#X connect 42 0 53 0;
#X connect 43 0 54 0;
#X connect 44 0 39 0;
#X connect 46 0 45 0;
#X connect 46 0 56 0;
#X connect 46 0 68 0;
#X connect 46 0 69 0;
#X connect 46 0 70 0;
#X connect 46 0 71 0;
#X connect 46 0 67 0;
#X connect 47 0 46 0;
#X connect 49 0 34 0;
#X connect 55 0 11 0;
#X connect 58 0 44 0;
#X connect 58 0 47 0;
#X connect 59 0 35 1;
#X connect 60 0 28 0;
#X connect 60 0 76 0;
#X connect 61 0 8 0;
#X connect 62 0 88 0;
#X connect 63 0 17 0;
#X connect 64 0 7 0;
#X connect 65 0 19 0;
#X connect 66 0 14 0;
#X connect 72 0 42 1;
#X connect 73 0 43 1;
#X connect 74 0 41 1;
#X connect 77 0 11 0;
#X connect 77 0 11 1;
#X connect 77 0 33 0;
#X connect 78 0 18 0;
#X connect 80 0 27 0;
#X connect 81 0 11 1;
#X connect 82 0 34 0;
#X connect 83 0 34 0;
#X connect 84 0 41 0;
#X connect 85 0 35 0;
#X connect 86 0 34 0;
#X connect 87 0 42 0;
#X connect 88 0 9 0;
#X connect 90 0 43 0;
#X restore 271 892 pd thunderInstance2;
#N canvas -7 0 1209 988 thunderInstance1 0;
#X obj 1157 684 s go2;
#X obj 1157 684 s go2;
#X obj 1157 684 s go2;
#X obj 1157 684 s go2;
#X obj 1157 684 s go2;
#X obj 1157 684 s go2;
#X obj 1157 684 s go2;
#N canvas 953 0 958 988 afterimage 0;
#X obj 1 114 noise~;
#X obj 16 176 noise~;
#X obj 1 199 *~;
#X obj 1 135 lop~ 3;
#X obj 1 220 clip~ -1 1;
#X obj 52 68 line;
#X obj 52 109 + 3;
#X obj 52 89 * 30;
#X obj 1 156 *~ 80;
#X obj 117 67 line;
#X obj 9 277 *~;
#X msg 52 48 1 \, 0 600;
#X obj 85 1 inlet;
#X obj 2 316 outlet~;
#X text 145 243 orig bp~ 333 4;
#X text 140 25 orig del 200;
#X floatatom 212 85 5 0 0 0 - - -, f 5;
#X floatatom 259 158 8 0 0 0 - - -, f 8;
#X text 246 129 better fadeout;
#X obj 130 131 expr pow($f1 \, 2);
#X obj 2 296 *~ 0.1;
#X obj 85 23 del 120;
#X obj 66 243 bp~ 233 0.1;
#X msg 117 47 1 \, 0 7000;
#X connect 0 0 3 0;
#X connect 1 0 2 1;
#X connect 2 0 4 0;
#X connect 3 0 8 0;
#X connect 4 0 22 0;
#X connect 5 0 7 0;
#X connect 6 0 3 1;
#X connect 7 0 6 0;
#X connect 8 0 2 0;
#X connect 9 0 16 0;
#X connect 9 0 19 0;
#X connect 10 0 20 0;
#X connect 11 0 5 0;
#X connect 12 0 21 0;
#X connect 19 0 17 0;
#X connect 19 0 10 1;
#X connect 20 0 13 0;
#X connect 21 0 11 0;
#X connect 21 0 23 0;
#X connect 22 0 10 0;
#X connect 23 0 9 0;
#X restore 248 175 pd afterimage;
#X obj 272 397 distance;
#X obj 323 373 line;
#X obj 186 133 line;
#X obj 272 483 dac~;
#N canvas -8 -8 1920 997 box 0;
#X obj 319 51 switch~;
#X obj 319 29 inlet;
#X obj 1 7 udly 12000;
#X obj 11 17 udly 12000;
#X obj 21 27 udly 12000;
#X obj 31 37 udly 12000;
#X obj 41 47 udly 12000;
#X obj 51 57 udly 12000;
#X obj 61 67 udly 12000;
#X obj 71 77 udly 12000;
#X obj 81 87 udly 12000;
#X obj 91 97 udly 12000;
#X obj 101 107 udly 12000;
#X obj 111 117 udly 12000;
#X obj 121 127 udly 12000;
#X obj 131 137 udly 12000;
#X obj 141 147 udly 12000;
#X obj 151 157 udly 12000;
#X obj 161 167 udly 12000;
#X obj 171 177 udly 12000;
#X obj 181 187 udly 12000;
#X obj 191 197 udly 12000;
#X obj 201 207 udly 12000;
#X obj 211 217 udly 12000;
#X connect 1 0 0 0;
#X restore 465 219 pd box of delays;
#X obj 465 199 tgl 15 0 empty empty empty 0 -6 0 8 -262144 -1 -1 1
1;
#X obj 490 196 s shake;
#X obj 44 95 bng 15 250 50 0 empty empty empty 0 -6 0 8 -262144 -1
-1;
#X obj 186 155 * 2000;
#N canvas -8 -8 1920 997 rumble 0;
#X obj 17 110 noise~;
#X obj 33 314 -~ 0.5;
#X obj 33 339 *~;
#X obj 33 359 *~ -4;
#X obj 33 379 +~ 1;
#X obj 33 399 *~ 0.5;
#X obj 75 28 noise~;
#X obj 75 89 max~ 0;
#X obj 17 172 samphold~;
#X msg 124 210 0.54;
#X obj 75 151 phasor~;
#X obj 75 111 *~ 3000;
#X obj 17 419 *~;
#X obj 17 439 hip~ 100;
#X obj 17 192 rpole~ 0.99;
#X obj 17 212 *~ 0.04;
#X obj 75 131 +~ 1;
#X obj 81 -12 inlet density;
#X obj 17 131 lop~;
#X obj 17 152 lop~;
#X obj 75 68 lop~;
#X obj 75 48 lop~;
#X obj 1 480 outlet~;
#X obj 17 241 min~ 0;
#X obj 17 263 *~ -1;
#X obj 65 240 max~ 0;
#X obj 17 286 +~;
#X obj 1 28 vline~;
#X obj 1 459 *~;
#X obj 1 -12 inlet trig;
#X msg 1 8 1 50 \, 0 8000 50;
#X connect 0 0 18 0;
#X connect 1 0 2 0;
#X connect 1 0 2 1;
#X connect 2 0 3 0;
#X connect 3 0 4 0;
#X connect 4 0 5 0;
#X connect 5 0 12 1;
#X connect 6 0 21 0;
#X connect 7 0 11 0;
#X connect 8 0 14 0;
#X connect 10 0 8 1;
#X connect 11 0 16 0;
#X connect 12 0 13 0;
#X connect 13 0 28 1;
#X connect 14 0 15 0;
#X connect 15 0 25 0;
#X connect 15 0 23 0;
#X connect 16 0 10 0;
#X connect 17 0 20 1;
#X connect 17 0 21 1;
#X connect 17 0 18 1;
#X connect 17 0 19 1;
#X connect 18 0 19 0;
#X connect 19 0 8 0;
#X connect 20 0 7 0;
#X connect 21 0 20 0;
#X connect 23 0 24 0;
#X connect 24 0 26 0;
#X connect 25 0 26 1;
#X connect 26 0 1 0;
#X connect 26 0 12 0;
#X connect 27 0 28 0;
#X connect 28 0 22 0;
#X connect 29 0 30 0;
#X connect 30 0 27 0;
#X restore 128 177 pd rumble;
#N canvas 1203 0 708 988 strike 0;
#X obj 167 44 route 0 1 2 3;
#X obj 4 3 inlet;
#X obj 167 67 strike-sound;
#X floatatom 141 20 5 0 0 0 - - -, f 5;
#X obj 188 87 strike-sound;
#X obj 210 107 strike-sound;
#X obj 231 126 strike-sound;
#X obj 43 142 outlet~;
#X obj 49 84 strike-sound;
#X msg 32 51 0.01;
#X connect 0 0 2 0;
#X connect 0 1 4 0;
#X connect 0 2 5 0;
#X connect 0 3 6 0;
#X connect 1 0 3 0;
#X connect 1 0 9 0;
#X connect 8 0 7 0;
#X connect 9 0 8 0;
#X restore 11 178 pd strike sound;
#N canvas 953 0 958 988 deep 0;
#X obj 8 -8 noise~;
#X obj 7 161 *~;
#X obj 84 115 *~;
#X obj 84 49 del 1000;
#X obj 84 28 inlet;
#X obj 7 181 outlet~;
#X obj 84 91 vline~;
#X obj 8 12 lop~ 80;
#X obj 8 32 lop~ 80;
#X obj 8 52 hip~ 15;
#X obj 8 92 clip~ -1 1;
#X obj 8 72 *~ 12;
#X obj 8 112 lop~ 80;
#X obj 8 132 lop~ 80;
#X text 251 68 orig 1 2000 \, 0 20000 2000;
#X msg 84 70 1 2000 \, 0 5000 2000;
#X connect 0 0 7 0;
#X connect 1 0 5 0;
#X connect 2 0 1 1;
#X connect 3 0 15 0;
#X connect 4 0 3 0;
#X connect 6 0 2 0;
#X connect 6 0 2 1;
#X connect 7 0 8 0;
#X connect 8 0 9 0;
#X connect 9 0 11 0;
#X connect 10 0 12 0;
#X connect 11 0 10 0;
#X connect 12 0 13 0;
#X connect 13 0 1 0;
#X connect 15 0 6 0;
#X restore 350 172 pd deep;
#X obj 496 406 tgl 15 0 empty empty empty 17 7 0 10 -262144 -1 -1 0
1;
#X msg 496 426 \; pd dsp \$1;
#X text 277 101 Original File from: Andy Farnell's Designing Sound
;
#X obj 449 143 loadbang;
#X obj 513 360 key;
#X obj 491 383 select 32, f 10;
#X text 18 298 0.3 0.3 0.9 0.5 orignally;
#X msg 186 110 1 \, 0 9000;
#X obj 234 372 *~ 1;
#X floatatom 11 463 5 0 0 0 - - -, f 5;
#X obj 34 391 bng 15 250 50 0 empty empty empty 17 7 0 10 -262144 -1
-1;
#X obj 7 365 env~;
#X obj 13 424 random 1000;
#X obj 109 342 *~ 0.6;
#X floatatom 67 79 7 0 0 0 - - -, f 7;
#X obj 11 245 /~;
#X obj 787 153 loadbang;
#X msg 782 183 1;
#X floatatom 755 285 5 0 0 0 - - -, f 5;
#X obj 738 251 max;
#X text 779 74 max input is ~3100;
#X obj 170 240 /~;
#X obj 264 246 /~;
#X obj 365 246 /~;
#X obj 712 174 / 200;
#X floatatom 672 292 5 0 0 0 - - -, f 5;
#X obj 655 259 max;
#X obj 649 194 / 1000;
#X text 587 27 intensity at a distance x/Intensity at a distance y
= x^2/y^2 -> simplify here;
#X obj 38 51 inlet;
#X text 24 310 0.15 0.01 0.05 0.5 final;
#X msg 86 43 214;
#X msg 118 46 556;
#X obj 129 198 *~ 0.01;
#X obj 11 198 *~ 0.05;
#X msg 149 52 3096;
#X obj 248 197 *~ 0.15, f 13;
#X msg 323 350 0 \, 1 6000;
#X text 385 346 orig 0 \, 1 12000;
#X obj 350 193 *~ 0.1;
#X text 12 321 0.05 0.01 0.15 0.1 finalV2;
#X obj 79 102 s distQuiet1;
#X obj 11 155 r goI1;
#X obj 128 154 r goII1;
#X obj 248 152 r goIII1;
#X obj 350 150 r goIV1;
#X obj 186 88 r goII1;
#X obj 36 222 r strikeDiv1;
#X obj 188 216 r div1;
#X obj 282 222 r div1;
#X obj 383 220 r div1;
#X obj 490 175 r goV1;
#X obj 84 455 catch~ la1;
#X obj 182 338 catch~ out1;
#X obj 272 308 catch~ distance1;
#X obj 323 328 r goIV1;
#X obj 368 398 catch~ ra1;
#X obj 286 423 s~ udly1;
#X obj 728 309 s strikeDiv1;
#X obj 695 66 r distQuiet1;
#X obj 569 302 s goI1;
#X obj 573 322 s goII1;
#X obj 578 342 s goIII1;
#X obj 590 362 s goIV1;
#X obj 608 382 s goV1;
#X obj 645 317 s div1;
#X obj 76 389 delwrite~ shockEcho1 1000;
#X obj 106 414 delread~ shockEcho1 10;
#X obj 13 271 throw~ out1;
#X obj 129 270 throw~ distance1;
#X obj 248 270 throw~ out1;
#X obj 350 269 throw~ distance1;
#X connect 7 0 56 0;
#X connect 8 0 11 0;
#X connect 8 0 11 1;
#X connect 8 0 77 0;
#X connect 9 0 8 1;
#X connect 10 0 16 0;
#X connect 13 0 12 0;
#X connect 15 0 61 0;
#X connect 16 0 17 1;
#X connect 17 0 53 0;
#X connect 18 0 54 0;
#X connect 19 0 59 0;
#X connect 20 0 21 0;
#X connect 23 0 13 0;
#X connect 24 0 25 0;
#X connect 27 0 10 0;
#X connect 28 0 11 1;
#X connect 28 0 11 0;
#X connect 30 0 32 0;
#X connect 31 0 30 0;
#X connect 32 0 29 0;
#X connect 32 0 87 0;
#X connect 33 0 86 0;
#X connect 34 0 61 0;
#X connect 35 0 88 0;
#X connect 36 0 37 0;
#X connect 37 0 39 1;
#X connect 37 0 46 1;
#X connect 39 0 38 0;
#X connect 39 0 78 0;
#X connect 41 0 89 0;
#X connect 42 0 90 0;
#X connect 43 0 91 0;
#X connect 44 0 39 0;
#X connect 46 0 45 0;
#X connect 46 0 80 0;
#X connect 46 0 81 0;
#X connect 46 0 82 0;
#X connect 46 0 83 0;
#X connect 46 0 84 0;
#X connect 46 0 85 0;
#X connect 47 0 46 0;
#X connect 49 0 34 0;
#X connect 51 0 34 0;
#X connect 52 0 34 0;
#X connect 53 0 41 0;
#X connect 54 0 35 0;
#X connect 55 0 34 0;
#X connect 56 0 42 0;
#X connect 57 0 9 0;
#X connect 59 0 43 0;
#X connect 62 0 18 0;
#X connect 63 0 17 0;
#X connect 64 0 7 0;
#X connect 65 0 19 0;
#X connect 66 0 27 0;
#X connect 67 0 35 1;
#X connect 68 0 41 1;
#X connect 69 0 42 1;
#X connect 70 0 43 1;
#X connect 71 0 14 0;
#X connect 72 0 11 0;
#X connect 73 0 28 0;
#X connect 73 0 86 0;
#X connect 74 0 8 0;
#X connect 75 0 57 0;
#X connect 76 0 11 1;
#X connect 79 0 44 0;
#X connect 79 0 47 0;
#X connect 87 0 11 0;
#X connect 87 0 11 1;
#X connect 87 0 33 0;
#X restore 201 913 pd thunderInstance1;
#N canvas -7 0 1209 988 thunderInstance3 0;
#X obj 1157 684 s go2;
#X obj 1157 684 s go2;
#X obj 1157 684 s go2;
#X obj 1157 684 s go2;
#X obj 1157 684 s go2;
#X obj 1157 684 s go2;
#X obj 1157 684 s go2;
#N canvas 953 0 958 988 afterimage 0;
#X obj 1 114 noise~;
#X obj 16 176 noise~;
#X obj 1 199 *~;
#X obj 1 135 lop~ 3;
#X obj 1 220 clip~ -1 1;
#X obj 52 68 line;
#X obj 52 109 + 3;
#X obj 52 89 * 30;
#X obj 1 156 *~ 80;
#X obj 117 67 line;
#X obj 9 277 *~;
#X msg 52 48 1 \, 0 600;
#X obj 85 1 inlet;
#X obj 2 316 outlet~;
#X text 145 243 orig bp~ 333 4;
#X text 140 25 orig del 200;
#X floatatom 212 85 5 0 0 0 - - -, f 5;
#X floatatom 259 158 8 0 0 0 - - -, f 8;
#X text 246 129 better fadeout;
#X obj 130 131 expr pow($f1 \, 2);
#X obj 2 296 *~ 0.1;
#X obj 85 23 del 120;
#X obj 66 243 bp~ 233 0.1;
#X msg 117 47 1 \, 0 7000;
#X connect 0 0 3 0;
#X connect 1 0 2 1;
#X connect 2 0 4 0;
#X connect 3 0 8 0;
#X connect 4 0 22 0;
#X connect 5 0 7 0;
#X connect 6 0 3 1;
#X connect 7 0 6 0;
#X connect 8 0 2 0;
#X connect 9 0 16 0;
#X connect 9 0 19 0;
#X connect 10 0 20 0;
#X connect 11 0 5 0;
#X connect 12 0 21 0;
#X connect 19 0 17 0;
#X connect 19 0 10 1;
#X connect 20 0 13 0;
#X connect 21 0 11 0;
#X connect 21 0 23 0;
#X connect 22 0 10 0;
#X connect 23 0 9 0;
#X restore 248 175 pd afterimage;
#X obj 272 397 distance;
#X obj 323 373 line;
#X obj 186 133 line;
#X obj 272 483 dac~;
#N canvas -8 -8 1920 997 box 0;
#X obj 319 51 switch~;
#X obj 319 29 inlet;
#X obj 1 7 udly 12000;
#X obj 11 17 udly 12000;
#X obj 21 27 udly 12000;
#X obj 31 37 udly 12000;
#X obj 41 47 udly 12000;
#X obj 51 57 udly 12000;
#X obj 61 67 udly 12000;
#X obj 71 77 udly 12000;
#X obj 81 87 udly 12000;
#X obj 91 97 udly 12000;
#X obj 101 107 udly 12000;
#X obj 111 117 udly 12000;
#X obj 121 127 udly 12000;
#X obj 131 137 udly 12000;
#X obj 141 147 udly 12000;
#X obj 151 157 udly 12000;
#X obj 161 167 udly 12000;
#X obj 171 177 udly 12000;
#X obj 181 187 udly 12000;
#X obj 191 197 udly 12000;
#X obj 201 207 udly 12000;
#X obj 211 217 udly 12000;
#X obj 221 227 udly 12000;
#X obj 231 237 udly 12000;
#X connect 1 0 0 0;
#X restore 465 219 pd box of delays;
#X obj 465 199 tgl 15 0 empty empty empty 0 -6 0 8 -262144 -1 -1 1
1;
#X obj 490 196 s shake;
#X obj 44 95 bng 15 250 50 0 empty empty empty 0 -6 0 8 -262144 -1
-1;
#X obj 186 155 * 2000;
#N canvas -8 -8 1920 997 rumble 0;
#X obj 17 110 noise~;
#X obj 33 314 -~ 0.5;
#X obj 33 339 *~;
#X obj 33 359 *~ -4;
#X obj 33 379 +~ 1;
#X obj 33 399 *~ 0.5;
#X obj 75 28 noise~;
#X obj 75 89 max~ 0;
#X obj 17 172 samphold~;
#X msg 124 210 0.54;
#X obj 75 151 phasor~;
#X obj 75 111 *~ 3000;
#X obj 17 419 *~;
#X obj 17 439 hip~ 100;
#X obj 17 192 rpole~ 0.99;
#X obj 17 212 *~ 0.04;
#X obj 75 131 +~ 1;
#X obj 81 -12 inlet density;
#X obj 17 131 lop~;
#X obj 17 152 lop~;
#X obj 75 68 lop~;
#X obj 75 48 lop~;
#X obj 1 480 outlet~;
#X obj 17 241 min~ 0;
#X obj 17 263 *~ -1;
#X obj 65 240 max~ 0;
#X obj 17 286 +~;
#X obj 1 28 vline~;
#X obj 1 459 *~;
#X obj 1 -12 inlet trig;
#X msg 1 8 1 50 \, 0 8000 50;
#X connect 0 0 18 0;
#X connect 1 0 2 0;
#X connect 1 0 2 1;
#X connect 2 0 3 0;
#X connect 3 0 4 0;
#X connect 4 0 5 0;
#X connect 5 0 12 1;
#X connect 6 0 21 0;
#X connect 7 0 11 0;
#X connect 8 0 14 0;
#X connect 10 0 8 1;
#X connect 11 0 16 0;
#X connect 12 0 13 0;
#X connect 13 0 28 1;
#X connect 14 0 15 0;
#X connect 15 0 25 0;
#X connect 15 0 23 0;
#X connect 16 0 10 0;
#X connect 17 0 20 1;
#X connect 17 0 21 1;
#X connect 17 0 18 1;
#X connect 17 0 19 1;
#X connect 18 0 19 0;
#X connect 19 0 8 0;
#X connect 20 0 7 0;
#X connect 21 0 20 0;
#X connect 23 0 24 0;
#X connect 24 0 26 0;
#X connect 25 0 26 1;
#X connect 26 0 1 0;
#X connect 26 0 12 0;
#X connect 27 0 28 0;
#X connect 28 0 22 0;
#X connect 29 0 30 0;
#X connect 30 0 27 0;
#X restore 128 177 pd rumble;
#N canvas 1203 0 708 988 strike 0;
#X obj 167 44 route 0 1 2 3;
#X obj 4 3 inlet;
#X obj 167 67 strike-sound;
#X floatatom 141 20 5 0 0 0 - - -, f 5;
#X obj 188 87 strike-sound;
#X obj 210 107 strike-sound;
#X obj 231 126 strike-sound;
#X obj 43 142 outlet~;
#X obj 49 84 strike-sound;
#X msg 32 51 0.01;
#X connect 0 0 2 0;
#X connect 0 1 4 0;
#X connect 0 2 5 0;
#X connect 0 3 6 0;
#X connect 1 0 3 0;
#X connect 1 0 9 0;
#X connect 8 0 7 0;
#X connect 9 0 8 0;
#X restore 11 178 pd strike sound;
#N canvas 953 0 958 988 deep 0;
#X obj 8 -8 noise~;
#X obj 7 161 *~;
#X obj 84 115 *~;
#X obj 84 49 del 1000;
#X obj 84 28 inlet;
#X obj 7 181 outlet~;
#X obj 84 91 vline~;
#X obj 8 12 lop~ 80;
#X obj 8 32 lop~ 80;
#X obj 8 52 hip~ 15;
#X obj 8 92 clip~ -1 1;
#X obj 8 72 *~ 12;
#X obj 8 112 lop~ 80;
#X obj 8 132 lop~ 80;
#X text 251 68 orig 1 2000 \, 0 20000 2000;
#X msg 84 70 1 2000 \, 0 5000 2000;
#X connect 0 0 7 0;
#X connect 1 0 5 0;
#X connect 2 0 1 1;
#X connect 3 0 15 0;
#X connect 4 0 3 0;
#X connect 6 0 2 0;
#X connect 6 0 2 1;
#X connect 7 0 8 0;
#X connect 8 0 9 0;
#X connect 9 0 11 0;
#X connect 10 0 12 0;
#X connect 11 0 10 0;
#X connect 12 0 13 0;
#X connect 13 0 1 0;
#X connect 15 0 6 0;
#X restore 350 172 pd deep;
#X obj 496 406 tgl 15 0 empty empty empty 17 7 0 10 -262144 -1 -1 0
1;
#X msg 496 426 \; pd dsp \$1;
#X text 277 101 Original File from: Andy Farnell's Designing Sound
;
#X obj 449 143 loadbang;
#X obj 513 360 key;
#X obj 491 383 select 32, f 10;
#X text 18 298 0.3 0.3 0.9 0.5 orignally;
#X msg 186 110 1 \, 0 9000;
#X obj 234 372 *~ 1;
#X floatatom 11 463 5 0 0 0 - - -, f 5;
#X obj 34 391 bng 15 250 50 0 empty empty empty 17 7 0 10 -262144 -1
-1;
#X obj 7 365 env~;
#X obj 13 424 random 1000;
#X obj 109 342 *~ 0.6;
#X floatatom 67 79 7 0 0 0 - - -, f 7;
#X obj 11 245 /~;
#X obj 787 153 loadbang;
#X msg 782 183 1;
#X floatatom 755 285 5 0 0 0 - - -, f 5;
#X obj 738 251 max;
#X text 779 74 max input is ~3100;
#X obj 170 240 /~;
#X obj 264 246 /~;
#X obj 365 246 /~;
#X obj 712 174 / 200;
#X floatatom 672 292 5 0 0 0 - - -, f 5;
#X obj 655 259 max;
#X obj 649 194 / 1000;
#X text 587 27 intensity at a distance x/Intensity at a distance y
= x^2/y^2 -> simplify here;
#X obj 38 51 inlet;
#X obj 79 102 s distQuiet2;
#X text 24 310 0.15 0.01 0.05 0.5 final;
#X msg 86 43 214;
#X msg 118 46 556;
#X obj 129 198 *~ 0.01;
#X obj 11 198 *~ 0.05;
#X msg 149 52 3096;
#X obj 248 197 *~ 0.15, f 13;
#X msg 323 350 0 \, 1 6000;
#X text 385 346 orig 0 \, 1 12000;
#X obj 350 193 *~ 0.1;
#X text 12 321 0.05 0.01 0.15 0.1 finalV2;
#X obj 11 155 r goI3;
#X obj 128 154 r goII3;
#X obj 186 88 r goII3;
#X obj 36 222 r strikeDiv3;
#X obj 13 271 throw~ out3;
#X obj 129 270 throw~ distance3;
#X obj 248 152 r goIII3;
#X obj 350 150 r goIV3;
#X obj 248 270 throw~ out3;
#X obj 350 269 throw~ distance3;
#X obj 383 221 r div3;
#X obj 282 222 r div3;
#X obj 490 175 r goV3;
#X obj 84 455 catch~ la3;
#X obj 286 423 s~ udly3;
#X obj 368 398 catch~ ra3;
#X obj 323 328 r goIV3;
#X obj 272 308 catch~ distance3;
#X obj 76 389 delwrite~ shockEcho3 1000;
#X obj 106 414 delread~ shockEcho3 10;
#X obj 182 338 catch~ out3;
#X obj 569 302 s go3;
#X obj 573 322 s goII3;
#X obj 578 342 s goIII3;
#X obj 590 362 s goIV3;
#X obj 608 382 s goV3;
#X obj 728 309 s strikeDiv3;
#X obj 695 66 r distQuiet3;
#X obj 645 317 s div3;
#X obj 188 216 r div3;
#X connect 7 0 57 0;
#X connect 8 0 11 0;
#X connect 8 0 11 1;
#X connect 8 0 76 0;
#X connect 9 0 8 1;
#X connect 10 0 16 0;
#X connect 13 0 12 0;
#X connect 15 0 50 0;
#X connect 16 0 17 1;
#X connect 17 0 54 0;
#X connect 18 0 55 0;
#X connect 19 0 60 0;
#X connect 20 0 21 0;
#X connect 23 0 13 0;
#X connect 24 0 25 0;
#X connect 27 0 10 0;
#X connect 28 0 11 1;
#X connect 28 0 11 0;
#X connect 30 0 32 0;
#X connect 31 0 30 0;
#X connect 32 0 29 0;
#X connect 32 0 81 0;
#X connect 33 0 80 0;
#X connect 34 0 50 0;
#X connect 35 0 66 0;
#X connect 36 0 37 0;
#X connect 37 0 39 1;
#X connect 37 0 46 1;
#X connect 39 0 38 0;
#X connect 39 0 88 0;
#X connect 41 0 67 0;
#X connect 42 0 70 0;
#X connect 43 0 71 0;
#X connect 44 0 39 0;
#X connect 46 0 45 0;
#X connect 46 0 83 0;
#X connect 46 0 84 0;
#X connect 46 0 85 0;
#X connect 46 0 86 0;
#X connect 46 0 87 0;
#X connect 46 0 90 0;
#X connect 47 0 46 0;
#X connect 49 0 34 0;
#X connect 52 0 34 0;
#X connect 53 0 34 0;
#X connect 54 0 41 0;
#X connect 55 0 35 0;
#X connect 56 0 34 0;
#X connect 57 0 42 0;
#X connect 58 0 9 0;
#X connect 60 0 43 0;
#X connect 62 0 18 0;
#X connect 63 0 17 0;
#X connect 64 0 27 0;
#X connect 65 0 35 1;
#X connect 68 0 7 0;
#X connect 69 0 19 0;
#X connect 72 0 43 1;
#X connect 73 0 42 1;
#X connect 74 0 14 0;
#X connect 75 0 11 0;
#X connect 77 0 11 1;
#X connect 78 0 58 0;
#X connect 79 0 8 0;
#X connect 81 0 11 0;
#X connect 81 0 11 1;
#X connect 81 0 33 0;
#X connect 82 0 28 0;
#X connect 82 0 80 0;
#X connect 89 0 44 0;
#X connect 89 0 47 0;
#X connect 91 0 41 1;
#X restore 294 870 pd thunderInstance3;
#X text 395 825 v- I spent >90 minutes of my life duplicating these
;
#N canvas -8 -8 1920 997 thunderInstance4 0;
#X obj 1157 684 s go2;
#X obj 1157 684 s go2;
#X obj 1157 684 s go2;
#X obj 1157 684 s go2;
#X obj 1157 684 s go2;
#X obj 1157 684 s go2;
#X obj 1157 684 s go2;
#N canvas 953 0 958 988 afterimage 0;
#X obj 1 114 noise~;
#X obj 16 176 noise~;
#X obj 1 199 *~;
#X obj 1 135 lop~ 3;
#X obj 1 220 clip~ -1 1;
#X obj 52 68 line;
#X obj 52 109 + 3;
#X obj 52 89 * 30;
#X obj 1 156 *~ 80;
#X obj 117 67 line;
#X obj 9 277 *~;
#X msg 52 48 1 \, 0 600;
#X obj 85 1 inlet;
#X obj 2 316 outlet~;
#X text 145 243 orig bp~ 333 4;
#X text 140 25 orig del 200;
#X floatatom 212 85 5 0 0 0 - - -, f 5;
#X floatatom 259 158 8 0 0 0 - - -, f 8;
#X text 246 129 better fadeout;
#X obj 130 131 expr pow($f1 \, 2);
#X obj 2 296 *~ 0.1;
#X obj 85 23 del 120;
#X obj 66 243 bp~ 233 0.1;
#X msg 117 47 1 \, 0 7000;
#X connect 0 0 3 0;
#X connect 1 0 2 1;
#X connect 2 0 4 0;
#X connect 3 0 8 0;
#X connect 4 0 22 0;
#X connect 5 0 7 0;
#X connect 6 0 3 1;
#X connect 7 0 6 0;
#X connect 8 0 2 0;
#X connect 9 0 16 0;
#X connect 9 0 19 0;
#X connect 10 0 20 0;
#X connect 11 0 5 0;
#X connect 12 0 21 0;
#X connect 19 0 17 0;
#X connect 19 0 10 1;
#X connect 20 0 13 0;
#X connect 21 0 11 0;
#X connect 21 0 23 0;
#X connect 22 0 10 0;
#X connect 23 0 9 0;
#X restore 248 175 pd afterimage;
#X obj 272 397 distance;
#X obj 323 373 line;
#X obj 186 133 line;
#X obj 272 483 dac~;
#N canvas -8 -8 1920 997 box 0;
#X obj 319 51 switch~;
#X obj 319 29 inlet;
#X obj 1 7 udly 12000;
#X obj 11 17 udly 12000;
#X obj 21 27 udly 12000;
#X obj 31 37 udly 12000;
#X obj 41 47 udly 12000;
#X obj 51 57 udly 12000;
#X obj 61 67 udly 12000;
#X obj 71 77 udly 12000;
#X obj 81 87 udly 12000;
#X obj 91 97 udly 12000;
#X obj 101 107 udly 12000;
#X obj 111 117 udly 12000;
#X obj 121 127 udly 12000;
#X obj 131 137 udly 12000;
#X obj 141 147 udly 12000;
#X obj 151 157 udly 12000;
#X obj 161 167 udly 12000;
#X obj 171 177 udly 12000;
#X obj 181 187 udly 12000;
#X obj 191 197 udly 12000;
#X obj 201 207 udly 12000;
#X obj 211 217 udly 12000;
#X obj 221 227 udly 12000;
#X obj 231 237 udly 12000;
#X connect 1 0 0 0;
#X restore 465 219 pd box of delays;
#X obj 465 199 tgl 15 0 empty empty empty 0 -6 0 8 -262144 -1 -1 1
1;
#X obj 490 196 s shake;
#X obj 44 95 bng 15 250 50 0 empty empty empty 0 -6 0 8 -262144 -1
-1;
#X obj 186 155 * 2000;
#N canvas -8 -8 1920 997 rumble 0;
#X obj 17 110 noise~;
#X obj 33 314 -~ 0.5;
#X obj 33 339 *~;
#X obj 33 359 *~ -4;
#X obj 33 379 +~ 1;
#X obj 33 399 *~ 0.5;
#X obj 75 28 noise~;
#X obj 75 89 max~ 0;
#X obj 17 172 samphold~;
#X msg 124 210 0.54;
#X obj 75 151 phasor~;
#X obj 75 111 *~ 3000;
#X obj 17 419 *~;
#X obj 17 439 hip~ 100;
#X obj 17 192 rpole~ 0.99;
#X obj 17 212 *~ 0.04;
#X obj 75 131 +~ 1;
#X obj 81 -12 inlet density;
#X obj 17 131 lop~;
#X obj 17 152 lop~;
#X obj 75 68 lop~;
#X obj 75 48 lop~;
#X obj 1 480 outlet~;
#X obj 17 241 min~ 0;
#X obj 17 263 *~ -1;
#X obj 65 240 max~ 0;
#X obj 17 286 +~;
#X obj 1 28 vline~;
#X obj 1 459 *~;
#X obj 1 -12 inlet trig;
#X msg 1 8 1 50 \, 0 8000 50;
#X connect 0 0 18 0;
#X connect 1 0 2 0;
#X connect 1 0 2 1;
#X connect 2 0 3 0;
#X connect 3 0 4 0;
#X connect 4 0 5 0;
#X connect 5 0 12 1;
#X connect 6 0 21 0;
#X connect 7 0 11 0;
#X connect 8 0 14 0;
#X connect 10 0 8 1;
#X connect 11 0 16 0;
#X connect 12 0 13 0;
#X connect 13 0 28 1;
#X connect 14 0 15 0;
#X connect 15 0 25 0;
#X connect 15 0 23 0;
#X connect 16 0 10 0;
#X connect 17 0 20 1;
#X connect 17 0 21 1;
#X connect 17 0 18 1;
#X connect 17 0 19 1;
#X connect 18 0 19 0;
#X connect 19 0 8 0;
#X connect 20 0 7 0;
#X connect 21 0 20 0;
#X connect 23 0 24 0;
#X connect 24 0 26 0;
#X connect 25 0 26 1;
#X connect 26 0 1 0;
#X connect 26 0 12 0;
#X connect 27 0 28 0;
#X connect 28 0 22 0;
#X connect 29 0 30 0;
#X connect 30 0 27 0;
#X restore 128 177 pd rumble;
#N canvas 1203 0 708 988 strike 0;
#X obj 167 44 route 0 1 2 3;
#X obj 4 3 inlet;
#X obj 167 67 strike-sound;
#X floatatom 141 20 5 0 0 0 - - -, f 5;
#X obj 188 87 strike-sound;
#X obj 210 107 strike-sound;
#X obj 231 126 strike-sound;
#X obj 43 142 outlet~;
#X obj 49 84 strike-sound;
#X msg 32 51 0.01;
#X connect 0 0 2 0;
#X connect 0 1 4 0;
#X connect 0 2 5 0;
#X connect 0 3 6 0;
#X connect 1 0 3 0;
#X connect 1 0 9 0;
#X connect 8 0 7 0;
#X connect 9 0 8 0;
#X restore 11 178 pd strike sound;
#N canvas 953 0 958 988 deep 0;
#X obj 8 -8 noise~;
#X obj 7 161 *~;
#X obj 84 115 *~;
#X obj 84 49 del 1000;
#X obj 84 28 inlet;
#X obj 7 181 outlet~;
#X obj 84 91 vline~;
#X obj 8 12 lop~ 80;
#X obj 8 32 lop~ 80;
#X obj 8 52 hip~ 15;
#X obj 8 92 clip~ -1 1;
#X obj 8 72 *~ 12;
#X obj 8 112 lop~ 80;
#X obj 8 132 lop~ 80;
#X text 251 68 orig 1 2000 \, 0 20000 2000;
#X msg 84 70 1 2000 \, 0 5000 2000;
#X connect 0 0 7 0;
#X connect 1 0 5 0;
#X connect 2 0 1 1;
#X connect 3 0 15 0;
#X connect 4 0 3 0;
#X connect 6 0 2 0;
#X connect 6 0 2 1;
#X connect 7 0 8 0;
#X connect 8 0 9 0;
#X connect 9 0 11 0;
#X connect 10 0 12 0;
#X connect 11 0 10 0;
#X connect 12 0 13 0;
#X connect 13 0 1 0;
#X connect 15 0 6 0;
#X restore 350 172 pd deep;
#X obj 496 406 tgl 15 0 empty empty empty 17 7 0 10 -262144 -1 -1 0
1;
#X msg 496 426 \; pd dsp \$1;
#X text 277 101 Original File from: Andy Farnell's Designing Sound
;
#X obj 449 143 loadbang;
#X obj 513 360 key;
#X obj 491 383 select 32, f 10;
#X text 18 298 0.3 0.3 0.9 0.5 orignally;
#X msg 186 110 1 \, 0 9000;
#X obj 234 372 *~ 1;
#X floatatom 11 463 5 0 0 0 - - -, f 5;
#X obj 34 391 bng 15 250 50 0 empty empty empty 17 7 0 10 -262144 -1
-1;
#X obj 7 365 env~;
#X obj 13 424 random 1000;
#X obj 109 342 *~ 0.6;
#X floatatom 67 79 7 0 0 0 - - -, f 7;
#X obj 11 245 /~;
#X obj 787 153 loadbang;
#X msg 782 183 1;
#X floatatom 755 285 5 0 0 0 - - -, f 5;
#X obj 738 251 max;
#X text 779 74 max input is ~3100;
#X obj 170 240 /~;
#X obj 264 246 /~;
#X obj 365 246 /~;
#X obj 712 174 / 200;
#X floatatom 672 292 5 0 0 0 - - -, f 5;
#X obj 655 259 max;
#X obj 649 194 / 1000;
#X text 587 27 intensity at a distance x/Intensity at a distance y
= x^2/y^2 -> simplify here;
#X obj 38 51 inlet;
#X text 24 310 0.15 0.01 0.05 0.5 final;
#X msg 86 43 214;
#X msg 118 46 556;
#X obj 129 198 *~ 0.01;
#X obj 11 198 *~ 0.05;
#X msg 149 52 3096;
#X obj 248 197 *~ 0.15, f 13;
#X msg 323 350 0 \, 1 6000;
#X text 385 346 orig 0 \, 1 12000;
#X obj 350 193 *~ 0.1;
#X text 12 321 0.05 0.01 0.15 0.1 finalV2;
#X obj 79 102 s distQuiet4;
#X obj 11 155 r goI4;
#X obj 128 154 r goII4;
#X obj 36 222 r strikeDiv4;
#X obj 188 216 r div4;
#X obj 282 222 r div4;
#X obj 383 221 r div4;
#X obj 490 175 r goV4;
#X obj 248 152 r goIII4;
#X obj 350 150 r goIV4;
#X obj 186 88 r goII4;
#X obj 84 455 catch~ la4;
#X obj 286 423 s~ udly4;
#X obj 323 328 r goIV4;
#X obj 272 308 catch~ distance4;
#X obj 182 338 catch~ out4;
#X obj 573 322 s goII4;
#X obj 578 342 s goIII4;
#X obj 590 362 s goIV4;
#X obj 608 382 s goV4;
#X obj 728 309 s strikeDiv4;
#X obj 645 317 s div4;
#X obj 13 271 throw~ out4;
#X obj 129 270 throw~ distance4;
#X obj 248 270 throw~ out4;
#X obj 76 389 delwrite~ shockEcho4 1000;
#X obj 106 414 delread~ shockEcho4 10;
#X obj 368 398 catch~ r4;
#X obj 695 66 r distQuiet4;
#X obj 350 269 throw~ distance4;
#X obj 569 302 s goI4;
#X connect 7 0 56 0;
#X connect 8 0 11 0;
#X connect 8 0 11 1;
#X connect 8 0 73 0;
#X connect 9 0 8 1;
#X connect 10 0 16 0;
#X connect 13 0 12 0;
#X connect 15 0 61 0;
#X connect 16 0 17 1;
#X connect 17 0 53 0;
#X connect 18 0 54 0;
#X connect 19 0 59 0;
#X connect 20 0 21 0;
#X connect 23 0 13 0;
#X connect 24 0 25 0;
#X connect 27 0 10 0;
#X connect 28 0 11 1;
#X connect 28 0 11 0;
#X connect 30 0 32 0;
#X connect 31 0 30 0;
#X connect 32 0 29 0;
#X connect 32 0 87 0;
#X connect 33 0 86 0;
#X connect 34 0 61 0;
#X connect 35 0 83 0;
#X connect 36 0 37 0;
#X connect 37 0 39 1;
#X connect 37 0 46 1;
#X connect 39 0 38 0;
#X connect 39 0 81 0;
#X connect 41 0 84 0;
#X connect 42 0 85 0;
#X connect 43 0 90 0;
#X connect 44 0 39 0;
#X connect 46 0 45 0;
#X connect 46 0 77 0;
#X connect 46 0 78 0;
#X connect 46 0 79 0;
#X connect 46 0 80 0;
#X connect 46 0 82 0;
#X connect 46 0 91 0;
#X connect 47 0 46 0;
#X connect 49 0 34 0;
#X connect 51 0 34 0;
#X connect 52 0 34 0;
#X connect 53 0 41 0;
#X connect 54 0 35 0;
#X connect 55 0 34 0;
#X connect 56 0 42 0;
#X connect 57 0 9 0;
#X connect 59 0 43 0;
#X connect 62 0 18 0;
#X connect 63 0 17 0;
#X connect 64 0 35 1;
#X connect 65 0 41 1;
#X connect 66 0 42 1;
#X connect 67 0 43 1;
#X connect 68 0 14 0;
#X connect 69 0 7 0;
#X connect 70 0 19 0;
#X connect 71 0 27 0;
#X connect 72 0 11 0;
#X connect 74 0 57 0;
#X connect 75 0 8 0;
#X connect 76 0 28 0;
#X connect 76 0 86 0;
#X connect 87 0 11 0;
#X connect 87 0 11 1;
#X connect 87 0 33 0;
#X connect 88 0 11 1;
#X connect 89 0 44 0;
#X connect 89 0 47 0;
#X restore 343 849 pd thunderInstance4;
#X obj 81 544 simple_wind;
#X obj 22 579 final_bgm;
#X obj 151 510 route footstep;
#X obj 61 507 bng 15 250 50 0 empty empty empty 17 7 0 10 -262144 -1
-1;
#X obj 35 474 route onboot;
#X connect 4 0 39 0;
#X connect 5 0 6 0;
#X connect 6 0 7 0;
#X connect 7 0 16 0;
#X connect 9 0 4 0;
#X connect 10 0 4 0;
#X connect 11 0 7 0;
#X connect 12 0 7 0;
#X connect 13 0 7 0;
#X connect 14 0 4 0;
#X connect 15 0 4 0;
#X connect 17 0 19 0;
#X connect 18 0 19 0;
#X connect 19 0 20 0;
#X connect 20 0 21 0;
#X connect 20 0 57 0;
#X connect 22 0 4 0;
#X connect 25 0 17 0;
#X connect 26 0 11 0;
#X connect 30 0 36 0;
#X connect 32 0 30 1;
#X connect 35 0 30 0;
#X connect 36 0 37 0;
#X connect 37 0 7 0;
#X connect 38 0 35 0;
#X connect 39 0 5 0;
#X connect 43 0 45 0;
#X connect 43 1 41 0;
#X connect 43 2 42 0;
#X connect 45 0 46 0;
#X connect 46 0 47 0;
#X connect 46 0 50 0;
#X connect 46 1 48 0;
#X connect 46 1 51 0;
#X connect 46 2 49 0;
#X connect 46 2 52 0;
#X connect 57 0 59 0;
#X connect 58 0 77 1;
#X connect 58 0 77 2;
#X connect 59 0 60 0;
#X connect 59 0 91 0;
#X connect 59 0 93 0;
#X connect 60 0 58 0;
#X connect 60 0 78 0;
#X connect 61 0 59 0;
#X connect 62 0 64 0;
#X connect 63 0 64 0;
#X connect 64 0 65 0;
#X connect 64 0 67 0;
#X connect 65 0 64 1;
#X connect 66 0 70 0;
#X connect 66 1 71 0;
#X connect 66 2 72 0;
#X connect 66 3 73 0;
#X connect 67 0 66 0;
#X connect 67 0 68 0;
#X connect 67 0 69 0;
#X connect 70 0 77 0;
#X connect 71 0 77 0;
#X connect 72 0 77 0;
#X connect 73 0 77 0;
#X connect 74 0 80 0;
#X connect 74 0 85 0;
#X connect 74 1 81 0;
#X connect 74 1 84 0;
#X connect 74 2 82 0;
#X connect 74 2 86 0;
#X connect 74 3 88 0;
#X connect 74 3 83 0;
#X connect 75 0 79 0;
#X connect 76 0 79 1;
#X connect 77 0 75 0;
#X connect 77 1 76 0;
#X connect 78 0 62 0;
#X connect 79 0 74 0;
#X connect 92 0 89 0;
#X connect 92 0 90 0;
#X connect 92 0 90 1;
#X connect 92 0 90 2;
#X connect 92 0 90 3;
#X connect 93 0 92 0;
