#N canvas -8 -8 1920 997 10;
#X obj 710 352 noise~;
#X obj 416 324 noise~;
#X obj 426 417 bp~, f 12;
#X obj 702 437 bp~, f 12;
#X obj 425 466 bp~, f 12;
#X obj 701 486 bp~, f 12;
#X floatatom 445 395 5 0 0 0 - - -, f 5;
#X floatatom 730 399 5 0 0 0 - - -, f 5;
#X floatatom 487 377 5 0 0 0 - - -, f 5;
#X floatatom 776 408 5 0 0 0 - - -, f 5;
#X obj 19 17 tgl 15 0 empty empty empty 17 7 0 10 -262144 -1 -1 0 1
;
#X msg 18 43 \; pd dsp \$1;
#X obj 803 351 hsl 128 15 1 8 0 0 empty empty empty -2 -8 0 10 -262144
-1 -1 12700 1;
#X obj 707 540 dac~;
#X obj 536 349 hsl 128 15 1 8 0 0 empty empty empty -2 -8 0 10 -262144
-1 -1 181 1;
#X obj 588 176 loadbang;
#X msg 562 210 284;
#X msg 640 233 1.1;
#X msg 745 212 800;
#X msg 846 234 8;
#X obj 854 471 hsl 128 15 0 5 0 0 empty empty empty -2 -8 0 10 -262144
-1 -1 762 1;
#X obj 857 400 loadbang;
#X floatatom 301 234 5 0 0 0 - - -, f 5;
#X floatatom 232 287 5 0 0 0 - - -, f 5;
#X obj 258 83 bng 15 250 50 0 empty empty empty 17 7 0 10 -262144 -1
-1;
#X obj 407 -67 tgl 15 0 empty empty empty 17 7 0 10 -262144 -1 -1 1
1;
#X obj 243 46 metro 50;
#X obj 257 113 random 5;
#X obj 234 323 hsl 128 15 0 500 0 0 empty empty empty -2 -8 0 10 -262144
-1 -1 10160 1;
#X msg 271 182 200;
#X msg 305 181 300;
#X msg 240 181 500;
#X msg 199 174 400;
#X obj 404 61 random 8000;
#X floatatom 861 90 5 0 0 0 - - -, f 5;
#X floatatom 792 143 5 0 0 0 - - -, f 5;
#X obj 807 -4 select 0 1 2 3;
#X obj 818 -61 bng 15 250 50 0 empty empty empty 17 7 0 10 -262144
-1 -1;
#X obj 803 -98 metro 50;
#X obj 817 -31 random 5;
#X obj 794 179 hsl 128 15 0 500 0 0 empty empty empty -2 -8 0 10 -262144
-1 -1 10379 1;
#X msg 792 39 100;
#X msg 831 38 200;
#X msg 865 37 300;
#X msg 900 33 500;
#X msg 759 30 400;
#X obj 872 -99 random 8000;
#X obj 247 140 select 0 1 2;
#X obj 357 177 + 2000;
#X obj 812 115 line 800 200;
#X obj 252 259 line 284 200;
#X obj 351 -93 loadbang;
#X text 892 428 orig 0.5;
#X obj 974 385 inlet;
#X obj 1051 -99 hsl 128 15 0 127 0 0 empty empty empty -2 -8 0 10 -262144
-1 -1 0 1;
#X msg 862 432 0;
#X msg 951 430 0.3;
#X obj 701 509 *~ 0.1;
#X connect 0 0 3 0;
#X connect 1 0 2 0;
#X connect 2 0 4 0;
#X connect 3 0 5 0;
#X connect 4 0 57 0;
#X connect 5 0 57 0;
#X connect 6 0 2 1;
#X connect 6 0 4 1;
#X connect 7 0 3 1;
#X connect 7 0 5 1;
#X connect 8 0 2 2;
#X connect 8 0 4 2;
#X connect 9 0 3 2;
#X connect 9 0 5 2;
#X connect 10 0 11 0;
#X connect 12 0 9 0;
#X connect 14 0 8 0;
#X connect 15 0 16 0;
#X connect 15 0 17 0;
#X connect 15 0 18 0;
#X connect 15 0 19 0;
#X connect 16 0 6 0;
#X connect 17 0 14 0;
#X connect 18 0 7 0;
#X connect 19 0 12 0;
#X connect 20 0 57 1;
#X connect 21 0 55 0;
#X connect 22 0 50 1;
#X connect 23 0 28 0;
#X connect 24 0 27 0;
#X connect 25 0 26 0;
#X connect 25 0 38 0;
#X connect 26 0 24 0;
#X connect 26 0 33 0;
#X connect 27 0 47 0;
#X connect 28 0 6 0;
#X connect 29 0 50 0;
#X connect 30 0 50 0;
#X connect 31 0 50 0;
#X connect 32 0 50 0;
#X connect 33 0 26 1;
#X connect 33 0 48 0;
#X connect 34 0 49 1;
#X connect 35 0 40 0;
#X connect 36 0 45 0;
#X connect 36 1 41 0;
#X connect 36 2 42 0;
#X connect 36 3 43 0;
#X connect 36 4 44 0;
#X connect 37 0 39 0;
#X connect 38 0 37 0;
#X connect 38 0 46 0;
#X connect 39 0 36 0;
#X connect 40 0 7 0;
#X connect 41 0 49 0;
#X connect 42 0 49 0;
#X connect 43 0 49 0;
#X connect 44 0 49 0;
#X connect 45 0 49 0;
#X connect 46 0 38 1;
#X connect 46 0 34 0;
#X connect 47 0 32 0;
#X connect 47 1 31 0;
#X connect 47 2 29 0;
#X connect 47 3 30 0;
#X connect 48 0 22 0;
#X connect 49 0 35 0;
#X connect 50 0 23 0;
#X connect 51 0 25 0;
#X connect 53 0 56 0;
#X connect 55 0 20 0;
#X connect 56 0 20 0;
#X connect 57 0 13 0;
#X connect 57 0 13 1;
