#N canvas 953 0 958 988 10;
#X text 19 16 OSC intro;
#X text 27 50 OSC -> built on top of UDP;
#X text 23 79 Need to set IP address + ports;
#X text 25 107 also special OSC address to set;
#X obj 737 258 oscformat cat horse pig;
#X obj 738 320 list prepend send;
#X obj 738 339 list trim;
#X obj 413 371 netsend -u -b;
#X text 504 369 <-- who needs IRC!?;
#X floatatom 709 193 5 0 0 0 - - -, f 5;
#X msg 782 95 1 2 3;
#X msg 201 286 connect localhost 8000;
#X msg 293 307 connect 127.0.0.1;
#X msg 181 325 disconnect;
#X msg 900 165 set dog ferret;
#X msg 933 200 set mouse banana;
#X obj 432 423 list trim;
#X msg 30 198 listen 8000;
#X msg 68 235 listen 0;
#X obj 32 264 netreceive -u -b;
#X obj 31 320 oscparse;
#X obj 21 355 print;
#X msg 843 124 4 5 weasel 6 7 rat;
#X text 211 256 localhost within my PC \; not over local, f 25;
#X text 878 147 set the thingy that gets prepended to the message;
#X obj 32 159 loadbang;
#X obj 204 218 loadbang;
#X obj 16 970 vsl 15 128 0 127 0 0 empty empty empty 0 -9 0 10 -262144
-1 -1 0 1;
#X obj 1306 18 hsl 128 15 0 127 0 0 empty empty empty -2 -8 0 10 -262144
-1 -1 0 1;
#X text 769 49 EXAMPLE EXAMPLE EXAMPLE EXAMPLE EXAMPLE;
#X obj 433 184 list append;
#X text 511 83 (Dist \, Dir.x \, Dir.z);
#X floatatom 509 140 5 0 0 0 - - -, f 5;
#X floatatom 551 143 5 0 0 0 - - -, f 5;
#X floatatom 598 149 5 0 0 0 - - -, f 5;
#X obj 390 102 oscformat thunderDistDir;
#X obj 434 214 list prepend send;
#X obj 434 233 list trim;
#X obj 378 61 bng 15 250 50 0 empty empty empty 17 7 0 10 -262144 -1
-1;
#X obj 744 290 list append 452.3;
#X obj 232 144 unpack;
#X symbolatom 293 676 10 0 0 0 - - -, f 10;
#X floatatom 222 729 5 0 0 0 - - -, f 5;
#X floatatom 268 729 5 0 0 0 - - -, f 5;
#X obj 79 647 unpack f f f;
#X text 85 623 messageTypeFlag \, float1 \, float2;
#X floatatom 85 695 5 0 0 0 - - -, f 5;
#X obj 89 744 route 0 1, f 14;
#X obj 68 766 bng 15 250 50 0 empty empty empty 17 7 0 10 -262144 -1
-1;
#X obj 110 768 bng 15 250 50 0 empty empty empty 17 7 0 10 -262144
-1 -1;
#X obj 179 767 bng 15 250 50 0 empty empty empty 17 7 0 10 -262144
-1 -1;
#X obj 64 856 s crescendoForXSec;
#X obj 147 821 s thunderMakeFromHere;
#X obj 206 769 print oops;
#X text 308 728 <- how do I send these?;
#X text 511 183 does not work;
#X obj 98 478 s strike;
#X text 29 585 UNUSED UNUSED UNUSED UNUSED;
#X obj 82 346 list trim;
#X floatatom 82 416 5 0 0 0 - - -, f 5;
#X obj 82 372 route unity;
#X obj 81 393 route trigger;
#X obj 33 442 bng 15 250 50 0 empty empty empty 17 7 0 10 -262144 -1
-1;
#X obj 48 468 bng 15 250 50 0 empty empty empty 17 7 0 10 -262144 -1
-1;
#X obj 47 394 bng 15 250 50 0 empty empty empty 17 7 0 10 -262144 -1
-1;
#X obj 97 447 pipe;
#X text 134 447 what you'd think delay would be;
#X floatatom 170 423 5 0 0 0 - - -, f 5;
#X obj 71 443 bng 15 250 50 0 empty empty empty 17 7 0 10 -262144 -1
-1;
#X connect 4 0 39 0;
#X connect 5 0 6 0;
#X connect 6 0 7 0;
#X connect 7 0 16 0;
#X connect 9 0 4 0;
#X connect 10 0 4 0;
#X connect 11 0 7 0;
#X connect 12 0 7 0;
#X connect 13 0 7 0;
#X connect 14 0 4 0;
#X connect 15 0 4 0;
#X connect 17 0 19 0;
#X connect 18 0 19 0;
#X connect 19 0 20 0;
#X connect 20 0 21 0;
#X connect 20 0 58 0;
#X connect 22 0 4 0;
#X connect 25 0 17 0;
#X connect 26 0 11 0;
#X connect 30 0 36 0;
#X connect 32 0 30 1;
#X connect 35 0 30 0;
#X connect 36 0 37 0;
#X connect 37 0 7 0;
#X connect 38 0 35 0;
#X connect 39 0 5 0;
#X connect 44 0 46 0;
#X connect 44 1 42 0;
#X connect 44 2 43 0;
#X connect 46 0 47 0;
#X connect 47 0 48 0;
#X connect 47 0 51 0;
#X connect 47 1 49 0;
#X connect 47 1 52 0;
#X connect 47 2 50 0;
#X connect 47 2 53 0;
#X connect 58 0 60 0;
#X connect 59 0 62 0;
#X connect 59 0 65 1;
#X connect 59 0 68 0;
#X connect 60 0 61 0;
#X connect 61 0 59 0;
#X connect 64 0 59 0;
#X connect 65 0 63 0;
#X connect 65 0 56 0;
#X connect 68 0 65 0;
