#N canvas 830 0 683 767 10;
#X obj 27 79 noise~;
#X obj 11 216 *~;
#X obj 39 302 *~;
#X obj 43 489 clip~ -1 1;
#X obj 44 520 dac~;
#X obj 66 150 *~;
#X obj 78 204 *~;
#X obj 78 227 lop~ 500;
#X obj 62 251 delwrite~ \$0-noise1 500;
#X obj 116 352 *~ 0.5;
#X obj 117 392 +~;
#X obj 44 464 *~;
#X obj 256 447 *~;
#X obj 257 469 clip~ -1 1;
#X obj 252 529 dac~;
#X obj 227 351 *~;
#X obj 103 175 lop~ 500;
#X obj 117 125 bp~ 4000 10;
#X obj 230 315 hip~;
#X obj 332 82 noise~;
#X obj 310 170 *~;
#X obj 320 341 *~;
#X obj 400 171 *~;
#X obj 400 226 *~;
#X obj 400 249 lop~ 500;
#X obj 399 280 delwrite~ \$0-noise2 500;
#X obj 67 277 delread~ \$0-noise1 500;
#X obj 349 373 *~ 0.5;
#X obj 513 374 *~;
#X obj 426 199 lop~ 500;
#X obj 464 138 bp~ 4000 10;
#X obj 515 339 hip~;
#X obj 411 301 delread~ \$0-noise2 500;
#X obj 524 26 vsl 15 60 0 1 0 0 empty empty empty 0 -9 0 10 -262144
-1 -1 2800 1;
#X obj 614 113 vsl 15 60 0 1 0 0 empty empty empty 0 -9 0 10 -262144
-1 -1 4100 1;
#X obj 668 190 vsl 15 60 0 1 0 0 empty empty empty 0 -9 0 10 -262144
-1 -1 2700 1;
#X obj 660 477 vsl 15 60 0 1 0 0 empty empty empty 0 -9 0 10 -262144
-1 -1 0 1;
#X obj 575 26 vsl 15 60 0 1 0 0 empty empty empty 0 -9 0 10 -262144
-1 -1 4600 1;
#X obj 609 425 vsl 15 60 0 1 0 0 empty empty empty 0 -9 0 10 -262144
-1 -1 0 1;
#X obj 504 586 vsl 15 60 0 1 0 0 empty empty empty 0 -9 0 10 -262144
-1 -1 0 1;
#X text 512 5 size;
#X text 577 8 intensity;
#X text 615 95 droplet amount;
#X text 630 172 droplet size;
#X obj 678 282 vsl 15 60 0 1 0 0 empty empty empty 0 -9 0 10 -262144
-1 -1 800 1;
#X obj 678 350 * 10;
#X text 610 407 wind;
#X text 652 453 crackle;
#X text 505 568 gain;
#X connect 0 0 1 0;
#X connect 0 0 5 0;
#X connect 0 0 17 0;
#X connect 1 0 2 0;
#X connect 2 0 11 0;
#X connect 3 0 4 0;
#X connect 3 0 4 1;
#X connect 5 0 6 0;
#X connect 5 0 16 0;
#X connect 6 0 7 0;
#X connect 7 0 8 0;
#X connect 7 0 9 0;
#X connect 7 0 15 0;
#X connect 9 0 10 0;
#X connect 10 0 11 0;
#X connect 10 0 12 0;
#X connect 11 0 3 0;
#X connect 12 0 13 0;
#X connect 13 0 14 0;
#X connect 13 0 14 1;
#X connect 15 0 4 0;
#X connect 15 0 4 1;
#X connect 16 0 6 1;
#X connect 17 0 5 1;
#X connect 17 0 2 0;
#X connect 17 0 18 0;
#X connect 18 0 15 0;
#X connect 19 0 20 0;
#X connect 19 0 22 0;
#X connect 19 0 30 0;
#X connect 20 0 21 0;
#X connect 21 0 12 0;
#X connect 22 0 23 0;
#X connect 22 0 29 0;
#X connect 23 0 24 0;
#X connect 24 0 25 0;
#X connect 24 0 27 0;
#X connect 24 0 28 0;
#X connect 26 0 2 1;
#X connect 27 0 10 1;
#X connect 28 0 14 0;
#X connect 28 0 14 1;
#X connect 29 0 23 1;
#X connect 30 0 21 0;
#X connect 30 0 31 0;
#X connect 30 0 22 1;
#X connect 31 0 28 0;
#X connect 32 0 21 1;
#X connect 33 0 17 1;
#X connect 33 0 30 1;
#X connect 34 0 16 1;
#X connect 34 0 29 1;
#X connect 35 0 24 1;
#X connect 35 0 7 1;
#X connect 36 0 20 1;
#X connect 36 0 1 1;
#X connect 37 0 30 2;
#X connect 37 0 17 2;
#X connect 38 0 28 1;
#X connect 38 0 15 1;
#X connect 39 0 12 1;
#X connect 39 0 11 1;
#X connect 44 0 45 0;
#X connect 45 0 31 1;
#X connect 45 0 18 1;
