#N canvas -7 0 958 988 10;
#N canvas 739 74 958 988 thunderInstance 1;
#X obj 1157 684 s go2;
#X obj 1157 684 s go2;
#X obj 1157 684 s go2;
#X obj 1157 684 s go2;
#X obj 1157 684 s go2;
#X obj 1157 684 s go2;
#X obj 1157 684 s go2;
#N canvas 953 0 958 988 afterimage 0;
#X obj 1 114 noise~;
#X obj 16 176 noise~;
#X obj 1 199 *~;
#X obj 1 135 lop~ 3;
#X obj 1 220 clip~ -1 1;
#X obj 52 68 line;
#X obj 52 109 + 3;
#X obj 52 89 * 30;
#X obj 1 156 *~ 80;
#X obj 117 67 line;
#X obj 9 277 *~;
#X msg 52 48 1 \, 0 600;
#X obj 85 1 inlet;
#X obj 2 316 outlet~;
#X text 145 243 orig bp~ 333 4;
#X text 140 25 orig del 200;
#X floatatom 212 85 5 0 0 0 - - -, f 5;
#X floatatom 259 158 8 0 0 0 - - -, f 8;
#X text 246 129 better fadeout;
#X obj 130 131 expr pow($f1 \, 2);
#X obj 2 296 *~ 0.1;
#X obj 85 23 del 120;
#X obj 66 243 bp~ 233 0.1;
#X msg 117 47 1 \, 0 7000;
#X connect 0 0 3 0;
#X connect 1 0 2 1;
#X connect 2 0 4 0;
#X connect 3 0 8 0;
#X connect 4 0 22 0;
#X connect 5 0 7 0;
#X connect 6 0 3 1;
#X connect 7 0 6 0;
#X connect 8 0 2 0;
#X connect 9 0 16 0;
#X connect 9 0 19 0;
#X connect 10 0 20 0;
#X connect 11 0 5 0;
#X connect 12 0 21 0;
#X connect 19 0 17 0;
#X connect 19 0 10 1;
#X connect 20 0 13 0;
#X connect 21 0 11 0;
#X connect 21 0 23 0;
#X connect 22 0 10 0;
#X connect 23 0 9 0;
#X restore 248 175 pd afterimage;
#X obj 272 397 distance;
#X obj 323 373 line;
#X obj 11 155 r go;
#X obj 186 133 line;
#X obj 186 88 r go;
#X obj 323 328 r go;
#X obj 272 483 dac~;
#X obj 286 423 s~ udly;
#N canvas -8 -8 1920 997 box 0;
#X obj 319 51 switch~;
#X obj 319 29 inlet;
#X obj 1 7 udly 12000;
#X obj 11 17 udly 12000;
#X obj 21 27 udly 12000;
#X obj 31 37 udly 12000;
#X obj 41 47 udly 12000;
#X obj 51 57 udly 12000;
#X obj 61 67 udly 12000;
#X obj 71 77 udly 12000;
#X obj 87 7 udly 12000;
#X obj 97 17 udly 12000;
#X obj 107 27 udly 12000;
#X obj 117 37 udly 12000;
#X obj 127 47 udly 12000;
#X obj 137 57 udly 12000;
#X obj 147 67 udly 12000;
#X obj 157 77 udly 12000;
#X obj 172 6 udly 12000;
#X obj 182 16 udly 12000;
#X obj 192 26 udly 12000;
#X obj 202 36 udly 12000;
#X obj 212 46 udly 12000;
#X obj 222 56 udly 12000;
#X obj 232 66 udly 12000;
#X obj 242 76 udly 12000;
#X connect 1 0 0 0;
#X restore 465 219 pd box of delays;
#X obj 30 501 catch~ la;
#X obj 368 398 catch~ ra;
#X obj 465 199 tgl 15 0 empty empty empty 0 -6 0 8 -262144 -1 -1 1
1;
#X obj 490 196 s shake;
#X obj 490 175 r go;
#X obj 44 95 bng 15 250 50 0 empty empty empty 0 -6 0 8 -262144 -1
-1;
#X obj 59 126 s go;
#X obj 186 155 * 2000;
#X msg 323 350 0 \, 1 12000;
#X obj 248 270 throw~ out;
#X obj 182 338 catch~ out;
#X obj 350 270 throw~ distance;
#X obj 129 270 throw~ distance;
#X obj 272 308 catch~ distance;
#N canvas -8 -8 1920 997 rumble 0;
#X obj 17 110 noise~;
#X obj 33 314 -~ 0.5;
#X obj 33 339 *~;
#X obj 33 359 *~ -4;
#X obj 33 379 +~ 1;
#X obj 33 399 *~ 0.5;
#X obj 75 28 noise~;
#X obj 75 89 max~ 0;
#X obj 17 172 samphold~;
#X msg 938 102 0.54;
#X obj 75 151 phasor~;
#X obj 75 111 *~ 3000;
#X obj 17 419 *~;
#X obj 17 439 hip~ 100;
#X obj 17 192 rpole~ 0.99;
#X obj 17 212 *~ 0.04;
#X obj 75 131 +~ 1;
#X obj 81 -12 inlet density;
#X obj 17 131 lop~;
#X obj 17 152 lop~;
#X obj 75 68 lop~;
#X obj 75 48 lop~;
#X obj 1 480 outlet~;
#X obj 17 241 min~ 0;
#X obj 17 263 *~ -1;
#X obj 65 240 max~ 0;
#X obj 17 286 +~;
#X obj 1 28 vline~;
#X obj 1 459 *~;
#X obj 1 -12 inlet trig;
#X msg 1 8 1 50 \, 0 8000 50;
#X connect 0 0 18 0;
#X connect 1 0 2 0;
#X connect 1 0 2 1;
#X connect 2 0 3 0;
#X connect 3 0 4 0;
#X connect 4 0 5 0;
#X connect 5 0 12 1;
#X connect 6 0 21 0;
#X connect 7 0 11 0;
#X connect 8 0 14 0;
#X connect 10 0 8 1;
#X connect 11 0 16 0;
#X connect 12 0 13 0;
#X connect 13 0 28 1;
#X connect 14 0 15 0;
#X connect 15 0 25 0;
#X connect 15 0 23 0;
#X connect 16 0 10 0;
#X connect 17 0 20 1;
#X connect 17 0 21 1;
#X connect 17 0 18 1;
#X connect 17 0 19 1;
#X connect 18 0 19 0;
#X connect 19 0 8 0;
#X connect 20 0 7 0;
#X connect 21 0 20 0;
#X connect 23 0 24 0;
#X connect 24 0 26 0;
#X connect 25 0 26 1;
#X connect 26 0 1 0;
#X connect 26 0 12 0;
#X connect 27 0 28 0;
#X connect 28 0 22 0;
#X connect 29 0 30 0;
#X connect 30 0 27 0;
#X restore 128 177 pd rumble;
#N canvas -8 -8 1920 997 strike 0;
#X obj 0 172 outlet~;
#X obj 1 44 route 0 1 2 3;
#X obj 1 0 inlet;
#X obj 162 11 strike-pattern;
#X obj 1 67 strike-sound;
#X floatatom 49 23 5 0 0 0 - - -, f 5;
#X obj 22 87 strike-sound;
#X obj 44 107 strike-sound;
#X obj 65 126 strike-sound;
#X connect 1 0 4 0;
#X connect 1 1 6 0;
#X connect 1 2 7 0;
#X connect 1 3 8 0;
#X connect 2 0 5 0;
#X connect 4 0 0 0;
#X connect 5 0 1 0;
#X connect 6 0 0 0;
#X connect 7 0 0 0;
#X connect 8 0 0 0;
#X restore 11 178 pd strike sound;
#N canvas 953 0 958 988 deep 0;
#X obj 8 -8 noise~;
#X obj 7 161 *~;
#X obj 84 115 *~;
#X obj 84 49 del 1000;
#X obj 84 28 inlet;
#X obj 7 181 outlet~;
#X obj 84 91 vline~;
#X obj 8 12 lop~ 80;
#X obj 8 32 lop~ 80;
#X obj 8 52 hip~ 15;
#X obj 8 92 clip~ -1 1;
#X obj 8 72 *~ 12;
#X obj 8 112 lop~ 80;
#X obj 8 132 lop~ 80;
#X text 251 68 orig 1 2000 \, 0 20000 2000;
#X msg 84 70 1 2000 \, 0 5000 2000;
#X connect 0 0 7 0;
#X connect 1 0 5 0;
#X connect 2 0 1 1;
#X connect 3 0 15 0;
#X connect 4 0 3 0;
#X connect 6 0 2 0;
#X connect 6 0 2 1;
#X connect 7 0 8 0;
#X connect 8 0 9 0;
#X connect 9 0 11 0;
#X connect 10 0 12 0;
#X connect 11 0 10 0;
#X connect 12 0 13 0;
#X connect 13 0 1 0;
#X connect 15 0 6 0;
#X restore 350 172 pd deep;
#X obj 13 271 throw~ out;
#X obj 496 406 tgl 15 0 empty empty empty 17 7 0 10 -262144 -1 -1 0
1;
#X msg 496 426 \; pd dsp \$1;
#X text 277 101 Original File from: Andy Farnell's Designing Sound
;
#X obj 449 143 loadbang;
#X obj 513 360 key;
#X obj 491 383 select 32, f 10;
#X text 17 307 0.3 0.3 0.9 0.5 orignally;
#X msg 186 110 1 \, 0 9000;
#X obj 234 372 *~ 1;
#X obj 76 389 delwrite~ shockEcho 1000;
#X obj 106 414 delread~ shockEcho 10;
#X floatatom 11 463 5 0 0 0 - - -, f 5;
#X obj 34 391 bng 15 250 50 0 empty empty empty 17 7 0 10 -262144 -1
-1;
#X obj 7 365 env~;
#X obj 13 424 random 1000;
#X obj 109 342 *~ 0.6;
#X floatatom 67 81 7 0 0 0 - - -, f 7;
#X obj 11 245 /~;
#X obj 787 153 loadbang;
#X msg 782 183 1;
#X obj 79 102 s distQuiet;
#X obj 695 66 r distQuiet;
#X floatatom 755 285 5 0 0 0 - - -, f 5;
#X obj 738 251 max;
#X text 779 74 max input is ~3100;
#X obj 188 216 r div;
#X obj 170 240 /~;
#X obj 282 222 r div;
#X obj 264 246 /~;
#X obj 383 221 r div;
#X obj 365 246 /~;
#X obj 712 174 / 200;
#X obj 36 222 r strikeDiv;
#X floatatom 672 292 5 0 0 0 - - -, f 5;
#X obj 655 259 max;
#X obj 645 317 s div;
#X obj 728 309 s strikeDiv;
#X obj 649 194 / 1000;
#X obj 569 302 s go;
#X obj 11 198 *~ 0.15;
#X obj 129 198 *~ 0.01;
#X obj 248 197 *~ 0.05, f 13;
#X obj 350 194 *~ 0.5;
#X obj 573 322 s go2;
#X obj 128 154 r go2;
#X obj 248 152 r go3;
#X obj 350 150 r go4;
#X obj 578 342 s go3;
#X obj 590 362 s go4;
#X text 587 27 intensity at a distance x/Intensity at a distance y
= x^2/y^2 -> simplify here;
#X obj 38 51 inlet;
#X connect 7 0 76 0;
#X connect 8 0 14 0;
#X connect 8 0 14 1;
#X connect 8 0 15 0;
#X connect 9 0 8 1;
#X connect 10 0 32 0;
#X connect 11 0 24 0;
#X connect 12 0 42 0;
#X connect 13 0 25 0;
#X connect 17 0 14 0;
#X connect 18 0 14 1;
#X connect 19 0 16 0;
#X connect 21 0 20 0;
#X connect 22 0 55 0;
#X connect 24 0 31 1;
#X connect 25 0 9 0;
#X connect 27 0 43 0;
#X connect 27 0 44 0;
#X connect 30 0 8 0;
#X connect 31 0 75 0;
#X connect 32 0 74 0;
#X connect 33 0 77 0;
#X connect 35 0 36 0;
#X connect 38 0 19 0;
#X connect 39 0 40 0;
#X connect 42 0 11 0;
#X connect 43 0 14 1;
#X connect 43 0 14 0;
#X connect 45 0 14 0;
#X connect 45 0 14 1;
#X connect 45 0 50 0;
#X connect 47 0 49 0;
#X connect 48 0 47 0;
#X connect 49 0 45 0;
#X connect 49 0 46 0;
#X connect 50 0 44 0;
#X connect 51 0 55 0;
#X connect 52 0 34 0;
#X connect 53 0 54 0;
#X connect 54 0 58 1;
#X connect 54 0 69 1;
#X connect 56 0 66 0;
#X connect 56 0 72 0;
#X connect 58 0 57 0;
#X connect 58 0 71 0;
#X connect 60 0 61 1;
#X connect 61 0 29 0;
#X connect 62 0 63 1;
#X connect 63 0 26 0;
#X connect 64 0 65 1;
#X connect 65 0 28 0;
#X connect 66 0 58 0;
#X connect 67 0 52 1;
#X connect 69 0 68 0;
#X connect 69 0 70 0;
#X connect 69 0 73 0;
#X connect 69 0 78 0;
#X connect 69 0 82 0;
#X connect 69 0 83 0;
#X connect 72 0 69 0;
#X connect 74 0 52 0;
#X connect 75 0 61 0;
#X connect 76 0 63 0;
#X connect 77 0 65 0;
#X connect 79 0 31 0;
#X connect 80 0 7 0;
#X connect 81 0 33 0;
#X connect 85 0 51 0;
#X restore 9 226 pd thunderInstance;
#X obj 88 25 r strike;
#X msg 36 58 0;
#X obj 45 105 f;
#X obj 82 106 + 1;
#X obj 51 190 select 0 1 2 3;
#X obj 43 146 % 4;
#X floatatom 82 168 5 0 0 0 - - -, f 5;
#N canvas 739 74 958 988 thunderInstance 1;
#X obj 1157 684 s go2;
#X obj 1157 684 s go2;
#X obj 1157 684 s go2;
#X obj 1157 684 s go2;
#X obj 1157 684 s go2;
#X obj 1157 684 s go2;
#X obj 1157 684 s go2;
#N canvas 953 0 958 988 afterimage 0;
#X obj 1 114 noise~;
#X obj 16 176 noise~;
#X obj 1 199 *~;
#X obj 1 135 lop~ 3;
#X obj 1 220 clip~ -1 1;
#X obj 52 68 line;
#X obj 52 109 + 3;
#X obj 52 89 * 30;
#X obj 1 156 *~ 80;
#X obj 117 67 line;
#X obj 9 277 *~;
#X msg 52 48 1 \, 0 600;
#X obj 85 1 inlet;
#X obj 2 316 outlet~;
#X text 145 243 orig bp~ 333 4;
#X text 140 25 orig del 200;
#X floatatom 212 85 5 0 0 0 - - -, f 5;
#X floatatom 259 158 8 0 0 0 - - -, f 8;
#X text 246 129 better fadeout;
#X obj 130 131 expr pow($f1 \, 2);
#X obj 2 296 *~ 0.1;
#X obj 85 23 del 120;
#X obj 66 243 bp~ 233 0.1;
#X msg 117 47 1 \, 0 7000;
#X connect 0 0 3 0;
#X connect 1 0 2 1;
#X connect 2 0 4 0;
#X connect 3 0 8 0;
#X connect 4 0 22 0;
#X connect 5 0 7 0;
#X connect 6 0 3 1;
#X connect 7 0 6 0;
#X connect 8 0 2 0;
#X connect 9 0 16 0;
#X connect 9 0 19 0;
#X connect 10 0 20 0;
#X connect 11 0 5 0;
#X connect 12 0 21 0;
#X connect 19 0 17 0;
#X connect 19 0 10 1;
#X connect 20 0 13 0;
#X connect 21 0 11 0;
#X connect 21 0 23 0;
#X connect 22 0 10 0;
#X connect 23 0 9 0;
#X restore 248 175 pd afterimage;
#X obj 272 397 distance;
#X obj 323 373 line;
#X obj 11 155 r go;
#X obj 186 133 line;
#X obj 186 88 r go;
#X obj 323 328 r go;
#X obj 272 483 dac~;
#X obj 286 423 s~ udly;
#N canvas -8 -8 1920 997 box 0;
#X obj 319 51 switch~;
#X obj 319 29 inlet;
#X obj 1 7 udly 12000;
#X obj 11 17 udly 12000;
#X obj 21 27 udly 12000;
#X obj 31 37 udly 12000;
#X obj 41 47 udly 12000;
#X obj 51 57 udly 12000;
#X obj 61 67 udly 12000;
#X obj 71 77 udly 12000;
#X obj 87 7 udly 12000;
#X obj 97 17 udly 12000;
#X obj 107 27 udly 12000;
#X obj 117 37 udly 12000;
#X obj 127 47 udly 12000;
#X obj 137 57 udly 12000;
#X obj 147 67 udly 12000;
#X obj 157 77 udly 12000;
#X obj 172 6 udly 12000;
#X obj 182 16 udly 12000;
#X obj 192 26 udly 12000;
#X obj 202 36 udly 12000;
#X obj 212 46 udly 12000;
#X obj 222 56 udly 12000;
#X obj 232 66 udly 12000;
#X obj 242 76 udly 12000;
#X connect 1 0 0 0;
#X restore 465 219 pd box of delays;
#X obj 30 501 catch~ la;
#X obj 368 398 catch~ ra;
#X obj 465 199 tgl 15 0 empty empty empty 0 -6 0 8 -262144 -1 -1 1
1;
#X obj 490 196 s shake;
#X obj 490 175 r go;
#X obj 44 95 bng 15 250 50 0 empty empty empty 0 -6 0 8 -262144 -1
-1;
#X obj 59 126 s go;
#X obj 186 155 * 2000;
#X msg 323 350 0 \, 1 12000;
#X obj 248 270 throw~ out;
#X obj 182 338 catch~ out;
#X obj 350 270 throw~ distance;
#X obj 129 270 throw~ distance;
#X obj 272 308 catch~ distance;
#N canvas -8 -8 1920 997 rumble 0;
#X obj 17 110 noise~;
#X obj 33 314 -~ 0.5;
#X obj 33 339 *~;
#X obj 33 359 *~ -4;
#X obj 33 379 +~ 1;
#X obj 33 399 *~ 0.5;
#X obj 75 28 noise~;
#X obj 75 89 max~ 0;
#X obj 17 172 samphold~;
#X msg 938 102 0.54;
#X obj 75 151 phasor~;
#X obj 75 111 *~ 3000;
#X obj 17 419 *~;
#X obj 17 439 hip~ 100;
#X obj 17 192 rpole~ 0.99;
#X obj 17 212 *~ 0.04;
#X obj 75 131 +~ 1;
#X obj 81 -12 inlet density;
#X obj 17 131 lop~;
#X obj 17 152 lop~;
#X obj 75 68 lop~;
#X obj 75 48 lop~;
#X obj 1 480 outlet~;
#X obj 17 241 min~ 0;
#X obj 17 263 *~ -1;
#X obj 65 240 max~ 0;
#X obj 17 286 +~;
#X obj 1 28 vline~;
#X obj 1 459 *~;
#X obj 1 -12 inlet trig;
#X msg 1 8 1 50 \, 0 8000 50;
#X connect 0 0 18 0;
#X connect 1 0 2 0;
#X connect 1 0 2 1;
#X connect 2 0 3 0;
#X connect 3 0 4 0;
#X connect 4 0 5 0;
#X connect 5 0 12 1;
#X connect 6 0 21 0;
#X connect 7 0 11 0;
#X connect 8 0 14 0;
#X connect 10 0 8 1;
#X connect 11 0 16 0;
#X connect 12 0 13 0;
#X connect 13 0 28 1;
#X connect 14 0 15 0;
#X connect 15 0 25 0;
#X connect 15 0 23 0;
#X connect 16 0 10 0;
#X connect 17 0 20 1;
#X connect 17 0 21 1;
#X connect 17 0 18 1;
#X connect 17 0 19 1;
#X connect 18 0 19 0;
#X connect 19 0 8 0;
#X connect 20 0 7 0;
#X connect 21 0 20 0;
#X connect 23 0 24 0;
#X connect 24 0 26 0;
#X connect 25 0 26 1;
#X connect 26 0 1 0;
#X connect 26 0 12 0;
#X connect 27 0 28 0;
#X connect 28 0 22 0;
#X connect 29 0 30 0;
#X connect 30 0 27 0;
#X restore 128 177 pd rumble;
#N canvas -8 -8 1920 997 strike 0;
#X obj 0 172 outlet~;
#X obj 1 44 route 0 1 2 3;
#X obj 1 0 inlet;
#X obj 162 11 strike-pattern;
#X obj 1 67 strike-sound;
#X floatatom 49 23 5 0 0 0 - - -, f 5;
#X obj 22 87 strike-sound;
#X obj 44 107 strike-sound;
#X obj 65 126 strike-sound;
#X connect 1 0 4 0;
#X connect 1 1 6 0;
#X connect 1 2 7 0;
#X connect 1 3 8 0;
#X connect 2 0 5 0;
#X connect 4 0 0 0;
#X connect 5 0 1 0;
#X connect 6 0 0 0;
#X connect 7 0 0 0;
#X connect 8 0 0 0;
#X restore 11 178 pd strike sound;
#N canvas 953 0 958 988 deep 0;
#X obj 8 -8 noise~;
#X obj 7 161 *~;
#X obj 84 115 *~;
#X obj 84 49 del 1000;
#X obj 84 28 inlet;
#X obj 7 181 outlet~;
#X obj 84 91 vline~;
#X obj 8 12 lop~ 80;
#X obj 8 32 lop~ 80;
#X obj 8 52 hip~ 15;
#X obj 8 92 clip~ -1 1;
#X obj 8 72 *~ 12;
#X obj 8 112 lop~ 80;
#X obj 8 132 lop~ 80;
#X text 251 68 orig 1 2000 \, 0 20000 2000;
#X msg 84 70 1 2000 \, 0 5000 2000;
#X connect 0 0 7 0;
#X connect 1 0 5 0;
#X connect 2 0 1 1;
#X connect 3 0 15 0;
#X connect 4 0 3 0;
#X connect 6 0 2 0;
#X connect 6 0 2 1;
#X connect 7 0 8 0;
#X connect 8 0 9 0;
#X connect 9 0 11 0;
#X connect 10 0 12 0;
#X connect 11 0 10 0;
#X connect 12 0 13 0;
#X connect 13 0 1 0;
#X connect 15 0 6 0;
#X restore 350 172 pd deep;
#X obj 13 271 throw~ out;
#X obj 496 406 tgl 15 0 empty empty empty 17 7 0 10 -262144 -1 -1 0
1;
#X msg 496 426 \; pd dsp \$1;
#X text 277 101 Original File from: Andy Farnell's Designing Sound
;
#X obj 449 143 loadbang;
#X obj 513 360 key;
#X obj 491 383 select 32, f 10;
#X text 17 307 0.3 0.3 0.9 0.5 orignally;
#X msg 186 110 1 \, 0 9000;
#X obj 234 372 *~ 1;
#X obj 76 389 delwrite~ shockEcho 1000;
#X obj 106 414 delread~ shockEcho 10;
#X floatatom 11 463 5 0 0 0 - - -, f 5;
#X obj 34 391 bng 15 250 50 0 empty empty empty 17 7 0 10 -262144 -1
-1;
#X obj 7 365 env~;
#X obj 13 424 random 1000;
#X obj 109 342 *~ 0.6;
#X floatatom 67 81 7 0 0 0 - - -, f 7;
#X obj 11 245 /~;
#X obj 787 153 loadbang;
#X msg 782 183 1;
#X obj 79 102 s distQuiet;
#X obj 695 66 r distQuiet;
#X floatatom 755 285 5 0 0 0 - - -, f 5;
#X obj 738 251 max;
#X text 779 74 max input is ~3100;
#X obj 188 216 r div;
#X obj 170 240 /~;
#X obj 282 222 r div;
#X obj 264 246 /~;
#X obj 383 221 r div;
#X obj 365 246 /~;
#X obj 712 174 / 200;
#X obj 36 222 r strikeDiv;
#X floatatom 672 292 5 0 0 0 - - -, f 5;
#X obj 655 259 max;
#X obj 645 317 s div;
#X obj 728 309 s strikeDiv;
#X obj 649 194 / 1000;
#X obj 569 302 s go;
#X obj 11 198 *~ 0.15;
#X obj 129 198 *~ 0.01;
#X obj 248 197 *~ 0.05, f 13;
#X obj 350 194 *~ 0.5;
#X obj 573 322 s go2;
#X obj 128 154 r go2;
#X obj 248 152 r go3;
#X obj 350 150 r go4;
#X obj 578 342 s go3;
#X obj 590 362 s go4;
#X text 587 27 intensity at a distance x/Intensity at a distance y
= x^2/y^2 -> simplify here;
#X obj 38 51 inlet;
#X connect 7 0 76 0;
#X connect 8 0 14 0;
#X connect 8 0 14 1;
#X connect 8 0 15 0;
#X connect 9 0 8 1;
#X connect 10 0 32 0;
#X connect 11 0 24 0;
#X connect 12 0 42 0;
#X connect 13 0 25 0;
#X connect 17 0 14 0;
#X connect 18 0 14 1;
#X connect 19 0 16 0;
#X connect 21 0 20 0;
#X connect 22 0 55 0;
#X connect 24 0 31 1;
#X connect 25 0 9 0;
#X connect 27 0 43 0;
#X connect 27 0 44 0;
#X connect 30 0 8 0;
#X connect 31 0 75 0;
#X connect 32 0 74 0;
#X connect 33 0 77 0;
#X connect 35 0 36 0;
#X connect 38 0 19 0;
#X connect 39 0 40 0;
#X connect 42 0 11 0;
#X connect 43 0 14 1;
#X connect 43 0 14 0;
#X connect 45 0 14 0;
#X connect 45 0 14 1;
#X connect 45 0 50 0;
#X connect 47 0 49 0;
#X connect 48 0 47 0;
#X connect 49 0 45 0;
#X connect 49 0 46 0;
#X connect 50 0 44 0;
#X connect 51 0 55 0;
#X connect 52 0 34 0;
#X connect 53 0 54 0;
#X connect 54 0 58 1;
#X connect 54 0 69 1;
#X connect 56 0 66 0;
#X connect 56 0 72 0;
#X connect 58 0 57 0;
#X connect 58 0 71 0;
#X connect 60 0 61 1;
#X connect 61 0 29 0;
#X connect 62 0 63 1;
#X connect 63 0 26 0;
#X connect 64 0 65 1;
#X connect 65 0 28 0;
#X connect 66 0 58 0;
#X connect 67 0 52 1;
#X connect 69 0 68 0;
#X connect 69 0 70 0;
#X connect 69 0 73 0;
#X connect 69 0 78 0;
#X connect 69 0 82 0;
#X connect 69 0 83 0;
#X connect 72 0 69 0;
#X connect 74 0 52 0;
#X connect 75 0 61 0;
#X connect 76 0 63 0;
#X connect 77 0 65 0;
#X connect 79 0 31 0;
#X connect 80 0 7 0;
#X connect 81 0 33 0;
#X connect 85 0 51 0;
#X restore 32 247 pd thunderInstance;
#N canvas 739 74 958 988 thunderInstance 1;
#X obj 1157 684 s go2;
#X obj 1157 684 s go2;
#X obj 1157 684 s go2;
#X obj 1157 684 s go2;
#X obj 1157 684 s go2;
#X obj 1157 684 s go2;
#X obj 1157 684 s go2;
#N canvas 953 0 958 988 afterimage 0;
#X obj 1 114 noise~;
#X obj 16 176 noise~;
#X obj 1 199 *~;
#X obj 1 135 lop~ 3;
#X obj 1 220 clip~ -1 1;
#X obj 52 68 line;
#X obj 52 109 + 3;
#X obj 52 89 * 30;
#X obj 1 156 *~ 80;
#X obj 117 67 line;
#X obj 9 277 *~;
#X msg 52 48 1 \, 0 600;
#X obj 85 1 inlet;
#X obj 2 316 outlet~;
#X text 145 243 orig bp~ 333 4;
#X text 140 25 orig del 200;
#X floatatom 212 85 5 0 0 0 - - -, f 5;
#X floatatom 259 158 8 0 0 0 - - -, f 8;
#X text 246 129 better fadeout;
#X obj 130 131 expr pow($f1 \, 2);
#X obj 2 296 *~ 0.1;
#X obj 85 23 del 120;
#X obj 66 243 bp~ 233 0.1;
#X msg 117 47 1 \, 0 7000;
#X connect 0 0 3 0;
#X connect 1 0 2 1;
#X connect 2 0 4 0;
#X connect 3 0 8 0;
#X connect 4 0 22 0;
#X connect 5 0 7 0;
#X connect 6 0 3 1;
#X connect 7 0 6 0;
#X connect 8 0 2 0;
#X connect 9 0 16 0;
#X connect 9 0 19 0;
#X connect 10 0 20 0;
#X connect 11 0 5 0;
#X connect 12 0 21 0;
#X connect 19 0 17 0;
#X connect 19 0 10 1;
#X connect 20 0 13 0;
#X connect 21 0 11 0;
#X connect 21 0 23 0;
#X connect 22 0 10 0;
#X connect 23 0 9 0;
#X restore 248 175 pd afterimage;
#X obj 272 397 distance;
#X obj 323 373 line;
#X obj 11 155 r go;
#X obj 186 133 line;
#X obj 186 88 r go;
#X obj 323 328 r go;
#X obj 272 483 dac~;
#X obj 286 423 s~ udly;
#N canvas -8 -8 1920 997 box 0;
#X obj 319 51 switch~;
#X obj 319 29 inlet;
#X obj 1 7 udly 12000;
#X obj 11 17 udly 12000;
#X obj 21 27 udly 12000;
#X obj 31 37 udly 12000;
#X obj 41 47 udly 12000;
#X obj 51 57 udly 12000;
#X obj 61 67 udly 12000;
#X obj 71 77 udly 12000;
#X obj 87 7 udly 12000;
#X obj 97 17 udly 12000;
#X obj 107 27 udly 12000;
#X obj 117 37 udly 12000;
#X obj 127 47 udly 12000;
#X obj 137 57 udly 12000;
#X obj 147 67 udly 12000;
#X obj 157 77 udly 12000;
#X obj 172 6 udly 12000;
#X obj 182 16 udly 12000;
#X obj 192 26 udly 12000;
#X obj 202 36 udly 12000;
#X obj 212 46 udly 12000;
#X obj 222 56 udly 12000;
#X obj 232 66 udly 12000;
#X obj 242 76 udly 12000;
#X connect 1 0 0 0;
#X restore 465 219 pd box of delays;
#X obj 30 501 catch~ la;
#X obj 368 398 catch~ ra;
#X obj 465 199 tgl 15 0 empty empty empty 0 -6 0 8 -262144 -1 -1 1
1;
#X obj 490 196 s shake;
#X obj 490 175 r go;
#X obj 44 95 bng 15 250 50 0 empty empty empty 0 -6 0 8 -262144 -1
-1;
#X obj 59 126 s go;
#X obj 186 155 * 2000;
#X msg 323 350 0 \, 1 12000;
#X obj 248 270 throw~ out;
#X obj 182 338 catch~ out;
#X obj 350 270 throw~ distance;
#X obj 129 270 throw~ distance;
#X obj 272 308 catch~ distance;
#N canvas -8 -8 1920 997 rumble 0;
#X obj 17 110 noise~;
#X obj 33 314 -~ 0.5;
#X obj 33 339 *~;
#X obj 33 359 *~ -4;
#X obj 33 379 +~ 1;
#X obj 33 399 *~ 0.5;
#X obj 75 28 noise~;
#X obj 75 89 max~ 0;
#X obj 17 172 samphold~;
#X msg 938 102 0.54;
#X obj 75 151 phasor~;
#X obj 75 111 *~ 3000;
#X obj 17 419 *~;
#X obj 17 439 hip~ 100;
#X obj 17 192 rpole~ 0.99;
#X obj 17 212 *~ 0.04;
#X obj 75 131 +~ 1;
#X obj 81 -12 inlet density;
#X obj 17 131 lop~;
#X obj 17 152 lop~;
#X obj 75 68 lop~;
#X obj 75 48 lop~;
#X obj 1 480 outlet~;
#X obj 17 241 min~ 0;
#X obj 17 263 *~ -1;
#X obj 65 240 max~ 0;
#X obj 17 286 +~;
#X obj 1 28 vline~;
#X obj 1 459 *~;
#X obj 1 -12 inlet trig;
#X msg 1 8 1 50 \, 0 8000 50;
#X connect 0 0 18 0;
#X connect 1 0 2 0;
#X connect 1 0 2 1;
#X connect 2 0 3 0;
#X connect 3 0 4 0;
#X connect 4 0 5 0;
#X connect 5 0 12 1;
#X connect 6 0 21 0;
#X connect 7 0 11 0;
#X connect 8 0 14 0;
#X connect 10 0 8 1;
#X connect 11 0 16 0;
#X connect 12 0 13 0;
#X connect 13 0 28 1;
#X connect 14 0 15 0;
#X connect 15 0 25 0;
#X connect 15 0 23 0;
#X connect 16 0 10 0;
#X connect 17 0 20 1;
#X connect 17 0 21 1;
#X connect 17 0 18 1;
#X connect 17 0 19 1;
#X connect 18 0 19 0;
#X connect 19 0 8 0;
#X connect 20 0 7 0;
#X connect 21 0 20 0;
#X connect 23 0 24 0;
#X connect 24 0 26 0;
#X connect 25 0 26 1;
#X connect 26 0 1 0;
#X connect 26 0 12 0;
#X connect 27 0 28 0;
#X connect 28 0 22 0;
#X connect 29 0 30 0;
#X connect 30 0 27 0;
#X restore 128 177 pd rumble;
#N canvas -8 -8 1920 997 strike 0;
#X obj 0 172 outlet~;
#X obj 1 44 route 0 1 2 3;
#X obj 1 0 inlet;
#X obj 162 11 strike-pattern;
#X obj 1 67 strike-sound;
#X floatatom 49 23 5 0 0 0 - - -, f 5;
#X obj 22 87 strike-sound;
#X obj 44 107 strike-sound;
#X obj 65 126 strike-sound;
#X connect 1 0 4 0;
#X connect 1 1 6 0;
#X connect 1 2 7 0;
#X connect 1 3 8 0;
#X connect 2 0 5 0;
#X connect 4 0 0 0;
#X connect 5 0 1 0;
#X connect 6 0 0 0;
#X connect 7 0 0 0;
#X connect 8 0 0 0;
#X restore 11 178 pd strike sound;
#N canvas 953 0 958 988 deep 0;
#X obj 8 -8 noise~;
#X obj 7 161 *~;
#X obj 84 115 *~;
#X obj 84 49 del 1000;
#X obj 84 28 inlet;
#X obj 7 181 outlet~;
#X obj 84 91 vline~;
#X obj 8 12 lop~ 80;
#X obj 8 32 lop~ 80;
#X obj 8 52 hip~ 15;
#X obj 8 92 clip~ -1 1;
#X obj 8 72 *~ 12;
#X obj 8 112 lop~ 80;
#X obj 8 132 lop~ 80;
#X text 251 68 orig 1 2000 \, 0 20000 2000;
#X msg 84 70 1 2000 \, 0 5000 2000;
#X connect 0 0 7 0;
#X connect 1 0 5 0;
#X connect 2 0 1 1;
#X connect 3 0 15 0;
#X connect 4 0 3 0;
#X connect 6 0 2 0;
#X connect 6 0 2 1;
#X connect 7 0 8 0;
#X connect 8 0 9 0;
#X connect 9 0 11 0;
#X connect 10 0 12 0;
#X connect 11 0 10 0;
#X connect 12 0 13 0;
#X connect 13 0 1 0;
#X connect 15 0 6 0;
#X restore 350 172 pd deep;
#X obj 13 271 throw~ out;
#X obj 496 406 tgl 15 0 empty empty empty 17 7 0 10 -262144 -1 -1 0
1;
#X msg 496 426 \; pd dsp \$1;
#X text 277 101 Original File from: Andy Farnell's Designing Sound
;
#X obj 449 143 loadbang;
#X obj 513 360 key;
#X obj 491 383 select 32, f 10;
#X text 17 307 0.3 0.3 0.9 0.5 orignally;
#X msg 186 110 1 \, 0 9000;
#X obj 234 372 *~ 1;
#X obj 76 389 delwrite~ shockEcho 1000;
#X obj 106 414 delread~ shockEcho 10;
#X floatatom 11 463 5 0 0 0 - - -, f 5;
#X obj 34 391 bng 15 250 50 0 empty empty empty 17 7 0 10 -262144 -1
-1;
#X obj 7 365 env~;
#X obj 13 424 random 1000;
#X obj 109 342 *~ 0.6;
#X floatatom 67 81 7 0 0 0 - - -, f 7;
#X obj 11 245 /~;
#X obj 787 153 loadbang;
#X msg 782 183 1;
#X obj 79 102 s distQuiet;
#X obj 695 66 r distQuiet;
#X floatatom 755 285 5 0 0 0 - - -, f 5;
#X obj 738 251 max;
#X text 779 74 max input is ~3100;
#X obj 188 216 r div;
#X obj 170 240 /~;
#X obj 282 222 r div;
#X obj 264 246 /~;
#X obj 383 221 r div;
#X obj 365 246 /~;
#X obj 712 174 / 200;
#X obj 36 222 r strikeDiv;
#X floatatom 672 292 5 0 0 0 - - -, f 5;
#X obj 655 259 max;
#X obj 645 317 s div;
#X obj 728 309 s strikeDiv;
#X obj 649 194 / 1000;
#X obj 569 302 s go;
#X obj 11 198 *~ 0.15;
#X obj 129 198 *~ 0.01;
#X obj 248 197 *~ 0.05, f 13;
#X obj 350 194 *~ 0.5;
#X obj 573 322 s go2;
#X obj 128 154 r go2;
#X obj 248 152 r go3;
#X obj 350 150 r go4;
#X obj 578 342 s go3;
#X obj 590 362 s go4;
#X text 587 27 intensity at a distance x/Intensity at a distance y
= x^2/y^2 -> simplify here;
#X obj 38 51 inlet;
#X connect 7 0 76 0;
#X connect 8 0 14 0;
#X connect 8 0 14 1;
#X connect 8 0 15 0;
#X connect 9 0 8 1;
#X connect 10 0 32 0;
#X connect 11 0 24 0;
#X connect 12 0 42 0;
#X connect 13 0 25 0;
#X connect 17 0 14 0;
#X connect 18 0 14 1;
#X connect 19 0 16 0;
#X connect 21 0 20 0;
#X connect 22 0 55 0;
#X connect 24 0 31 1;
#X connect 25 0 9 0;
#X connect 27 0 43 0;
#X connect 27 0 44 0;
#X connect 30 0 8 0;
#X connect 31 0 75 0;
#X connect 32 0 74 0;
#X connect 33 0 77 0;
#X connect 35 0 36 0;
#X connect 38 0 19 0;
#X connect 39 0 40 0;
#X connect 42 0 11 0;
#X connect 43 0 14 1;
#X connect 43 0 14 0;
#X connect 45 0 14 0;
#X connect 45 0 14 1;
#X connect 45 0 50 0;
#X connect 47 0 49 0;
#X connect 48 0 47 0;
#X connect 49 0 45 0;
#X connect 49 0 46 0;
#X connect 50 0 44 0;
#X connect 51 0 55 0;
#X connect 52 0 34 0;
#X connect 53 0 54 0;
#X connect 54 0 58 1;
#X connect 54 0 69 1;
#X connect 56 0 66 0;
#X connect 56 0 72 0;
#X connect 58 0 57 0;
#X connect 58 0 71 0;
#X connect 60 0 61 1;
#X connect 61 0 29 0;
#X connect 62 0 63 1;
#X connect 63 0 26 0;
#X connect 64 0 65 1;
#X connect 65 0 28 0;
#X connect 66 0 58 0;
#X connect 67 0 52 1;
#X connect 69 0 68 0;
#X connect 69 0 70 0;
#X connect 69 0 73 0;
#X connect 69 0 78 0;
#X connect 69 0 82 0;
#X connect 69 0 83 0;
#X connect 72 0 69 0;
#X connect 74 0 52 0;
#X connect 75 0 61 0;
#X connect 76 0 63 0;
#X connect 77 0 65 0;
#X connect 79 0 31 0;
#X connect 80 0 7 0;
#X connect 81 0 33 0;
#X connect 85 0 51 0;
#X restore 68 268 pd thunderInstance;
#N canvas 739 74 958 988 thunderInstance 1;
#X obj 1157 684 s go2;
#X obj 1157 684 s go2;
#X obj 1157 684 s go2;
#X obj 1157 684 s go2;
#X obj 1157 684 s go2;
#X obj 1157 684 s go2;
#X obj 1157 684 s go2;
#N canvas 953 0 958 988 afterimage 0;
#X obj 1 114 noise~;
#X obj 16 176 noise~;
#X obj 1 199 *~;
#X obj 1 135 lop~ 3;
#X obj 1 220 clip~ -1 1;
#X obj 52 68 line;
#X obj 52 109 + 3;
#X obj 52 89 * 30;
#X obj 1 156 *~ 80;
#X obj 117 67 line;
#X obj 9 277 *~;
#X msg 52 48 1 \, 0 600;
#X obj 85 1 inlet;
#X obj 2 316 outlet~;
#X text 145 243 orig bp~ 333 4;
#X text 140 25 orig del 200;
#X floatatom 212 85 5 0 0 0 - - -, f 5;
#X floatatom 259 158 8 0 0 0 - - -, f 8;
#X text 246 129 better fadeout;
#X obj 130 131 expr pow($f1 \, 2);
#X obj 2 296 *~ 0.1;
#X obj 85 23 del 120;
#X obj 66 243 bp~ 233 0.1;
#X msg 117 47 1 \, 0 7000;
#X connect 0 0 3 0;
#X connect 1 0 2 1;
#X connect 2 0 4 0;
#X connect 3 0 8 0;
#X connect 4 0 22 0;
#X connect 5 0 7 0;
#X connect 6 0 3 1;
#X connect 7 0 6 0;
#X connect 8 0 2 0;
#X connect 9 0 16 0;
#X connect 9 0 19 0;
#X connect 10 0 20 0;
#X connect 11 0 5 0;
#X connect 12 0 21 0;
#X connect 19 0 17 0;
#X connect 19 0 10 1;
#X connect 20 0 13 0;
#X connect 21 0 11 0;
#X connect 21 0 23 0;
#X connect 22 0 10 0;
#X connect 23 0 9 0;
#X restore 248 175 pd afterimage;
#X obj 272 397 distance;
#X obj 323 373 line;
#X obj 11 155 r go;
#X obj 186 133 line;
#X obj 186 88 r go;
#X obj 323 328 r go;
#X obj 272 483 dac~;
#X obj 286 423 s~ udly;
#N canvas -8 -8 1920 997 box 0;
#X obj 319 51 switch~;
#X obj 319 29 inlet;
#X obj 1 7 udly 12000;
#X obj 11 17 udly 12000;
#X obj 21 27 udly 12000;
#X obj 31 37 udly 12000;
#X obj 41 47 udly 12000;
#X obj 51 57 udly 12000;
#X obj 61 67 udly 12000;
#X obj 71 77 udly 12000;
#X obj 87 7 udly 12000;
#X obj 97 17 udly 12000;
#X obj 107 27 udly 12000;
#X obj 117 37 udly 12000;
#X obj 127 47 udly 12000;
#X obj 137 57 udly 12000;
#X obj 147 67 udly 12000;
#X obj 157 77 udly 12000;
#X obj 172 6 udly 12000;
#X obj 182 16 udly 12000;
#X obj 192 26 udly 12000;
#X obj 202 36 udly 12000;
#X obj 212 46 udly 12000;
#X obj 222 56 udly 12000;
#X obj 232 66 udly 12000;
#X obj 242 76 udly 12000;
#X connect 1 0 0 0;
#X restore 465 219 pd box of delays;
#X obj 30 501 catch~ la;
#X obj 368 398 catch~ ra;
#X obj 465 199 tgl 15 0 empty empty empty 0 -6 0 8 -262144 -1 -1 1
1;
#X obj 490 196 s shake;
#X obj 490 175 r go;
#X obj 44 95 bng 15 250 50 0 empty empty empty 0 -6 0 8 -262144 -1
-1;
#X obj 59 126 s go;
#X obj 186 155 * 2000;
#X msg 323 350 0 \, 1 12000;
#X obj 248 270 throw~ out;
#X obj 182 338 catch~ out;
#X obj 350 270 throw~ distance;
#X obj 129 270 throw~ distance;
#X obj 272 308 catch~ distance;
#N canvas -8 -8 1920 997 rumble 0;
#X obj 17 110 noise~;
#X obj 33 314 -~ 0.5;
#X obj 33 339 *~;
#X obj 33 359 *~ -4;
#X obj 33 379 +~ 1;
#X obj 33 399 *~ 0.5;
#X obj 75 28 noise~;
#X obj 75 89 max~ 0;
#X obj 17 172 samphold~;
#X msg 938 102 0.54;
#X obj 75 151 phasor~;
#X obj 75 111 *~ 3000;
#X obj 17 419 *~;
#X obj 17 439 hip~ 100;
#X obj 17 192 rpole~ 0.99;
#X obj 17 212 *~ 0.04;
#X obj 75 131 +~ 1;
#X obj 81 -12 inlet density;
#X obj 17 131 lop~;
#X obj 17 152 lop~;
#X obj 75 68 lop~;
#X obj 75 48 lop~;
#X obj 1 480 outlet~;
#X obj 17 241 min~ 0;
#X obj 17 263 *~ -1;
#X obj 65 240 max~ 0;
#X obj 17 286 +~;
#X obj 1 28 vline~;
#X obj 1 459 *~;
#X obj 1 -12 inlet trig;
#X msg 1 8 1 50 \, 0 8000 50;
#X connect 0 0 18 0;
#X connect 1 0 2 0;
#X connect 1 0 2 1;
#X connect 2 0 3 0;
#X connect 3 0 4 0;
#X connect 4 0 5 0;
#X connect 5 0 12 1;
#X connect 6 0 21 0;
#X connect 7 0 11 0;
#X connect 8 0 14 0;
#X connect 10 0 8 1;
#X connect 11 0 16 0;
#X connect 12 0 13 0;
#X connect 13 0 28 1;
#X connect 14 0 15 0;
#X connect 15 0 25 0;
#X connect 15 0 23 0;
#X connect 16 0 10 0;
#X connect 17 0 20 1;
#X connect 17 0 21 1;
#X connect 17 0 18 1;
#X connect 17 0 19 1;
#X connect 18 0 19 0;
#X connect 19 0 8 0;
#X connect 20 0 7 0;
#X connect 21 0 20 0;
#X connect 23 0 24 0;
#X connect 24 0 26 0;
#X connect 25 0 26 1;
#X connect 26 0 1 0;
#X connect 26 0 12 0;
#X connect 27 0 28 0;
#X connect 28 0 22 0;
#X connect 29 0 30 0;
#X connect 30 0 27 0;
#X restore 128 177 pd rumble;
#N canvas -8 -8 1920 997 strike 0;
#X obj 0 172 outlet~;
#X obj 1 44 route 0 1 2 3;
#X obj 1 0 inlet;
#X obj 162 11 strike-pattern;
#X obj 1 67 strike-sound;
#X floatatom 49 23 5 0 0 0 - - -, f 5;
#X obj 22 87 strike-sound;
#X obj 44 107 strike-sound;
#X obj 65 126 strike-sound;
#X connect 1 0 4 0;
#X connect 1 1 6 0;
#X connect 1 2 7 0;
#X connect 1 3 8 0;
#X connect 2 0 5 0;
#X connect 4 0 0 0;
#X connect 5 0 1 0;
#X connect 6 0 0 0;
#X connect 7 0 0 0;
#X connect 8 0 0 0;
#X restore 11 178 pd strike sound;
#N canvas 953 0 958 988 deep 0;
#X obj 8 -8 noise~;
#X obj 7 161 *~;
#X obj 84 115 *~;
#X obj 84 49 del 1000;
#X obj 84 28 inlet;
#X obj 7 181 outlet~;
#X obj 84 91 vline~;
#X obj 8 12 lop~ 80;
#X obj 8 32 lop~ 80;
#X obj 8 52 hip~ 15;
#X obj 8 92 clip~ -1 1;
#X obj 8 72 *~ 12;
#X obj 8 112 lop~ 80;
#X obj 8 132 lop~ 80;
#X text 251 68 orig 1 2000 \, 0 20000 2000;
#X msg 84 70 1 2000 \, 0 5000 2000;
#X connect 0 0 7 0;
#X connect 1 0 5 0;
#X connect 2 0 1 1;
#X connect 3 0 15 0;
#X connect 4 0 3 0;
#X connect 6 0 2 0;
#X connect 6 0 2 1;
#X connect 7 0 8 0;
#X connect 8 0 9 0;
#X connect 9 0 11 0;
#X connect 10 0 12 0;
#X connect 11 0 10 0;
#X connect 12 0 13 0;
#X connect 13 0 1 0;
#X connect 15 0 6 0;
#X restore 350 172 pd deep;
#X obj 13 271 throw~ out;
#X obj 496 406 tgl 15 0 empty empty empty 17 7 0 10 -262144 -1 -1 0
1;
#X msg 496 426 \; pd dsp \$1;
#X text 277 101 Original File from: Andy Farnell's Designing Sound
;
#X obj 449 143 loadbang;
#X obj 513 360 key;
#X obj 491 383 select 32, f 10;
#X text 17 307 0.3 0.3 0.9 0.5 orignally;
#X msg 186 110 1 \, 0 9000;
#X obj 234 372 *~ 1;
#X obj 76 389 delwrite~ shockEcho 1000;
#X obj 106 414 delread~ shockEcho 10;
#X floatatom 11 463 5 0 0 0 - - -, f 5;
#X obj 34 391 bng 15 250 50 0 empty empty empty 17 7 0 10 -262144 -1
-1;
#X obj 7 365 env~;
#X obj 13 424 random 1000;
#X obj 109 342 *~ 0.6;
#X floatatom 67 81 7 0 0 0 - - -, f 7;
#X obj 11 245 /~;
#X obj 787 153 loadbang;
#X msg 782 183 1;
#X obj 79 102 s distQuiet;
#X obj 695 66 r distQuiet;
#X floatatom 755 285 5 0 0 0 - - -, f 5;
#X obj 738 251 max;
#X text 779 74 max input is ~3100;
#X obj 188 216 r div;
#X obj 170 240 /~;
#X obj 282 222 r div;
#X obj 264 246 /~;
#X obj 383 221 r div;
#X obj 365 246 /~;
#X obj 712 174 / 200;
#X obj 36 222 r strikeDiv;
#X floatatom 672 292 5 0 0 0 - - -, f 5;
#X obj 655 259 max;
#X obj 645 317 s div;
#X obj 728 309 s strikeDiv;
#X obj 649 194 / 1000;
#X obj 569 302 s go;
#X obj 11 198 *~ 0.15;
#X obj 129 198 *~ 0.01;
#X obj 248 197 *~ 0.05, f 13;
#X obj 350 194 *~ 0.5;
#X obj 573 322 s go2;
#X obj 128 154 r go2;
#X obj 248 152 r go3;
#X obj 350 150 r go4;
#X obj 578 342 s go3;
#X obj 590 362 s go4;
#X text 587 27 intensity at a distance x/Intensity at a distance y
= x^2/y^2 -> simplify here;
#X obj 38 51 inlet;
#X connect 7 0 76 0;
#X connect 8 0 14 0;
#X connect 8 0 14 1;
#X connect 8 0 15 0;
#X connect 9 0 8 1;
#X connect 10 0 32 0;
#X connect 11 0 24 0;
#X connect 12 0 42 0;
#X connect 13 0 25 0;
#X connect 17 0 14 0;
#X connect 18 0 14 1;
#X connect 19 0 16 0;
#X connect 21 0 20 0;
#X connect 22 0 55 0;
#X connect 24 0 31 1;
#X connect 25 0 9 0;
#X connect 27 0 43 0;
#X connect 27 0 44 0;
#X connect 30 0 8 0;
#X connect 31 0 75 0;
#X connect 32 0 74 0;
#X connect 33 0 77 0;
#X connect 35 0 36 0;
#X connect 38 0 19 0;
#X connect 39 0 40 0;
#X connect 42 0 11 0;
#X connect 43 0 14 1;
#X connect 43 0 14 0;
#X connect 45 0 14 0;
#X connect 45 0 14 1;
#X connect 45 0 50 0;
#X connect 47 0 49 0;
#X connect 48 0 47 0;
#X connect 49 0 45 0;
#X connect 49 0 46 0;
#X connect 50 0 44 0;
#X connect 51 0 55 0;
#X connect 52 0 34 0;
#X connect 53 0 54 0;
#X connect 54 0 58 1;
#X connect 54 0 69 1;
#X connect 56 0 66 0;
#X connect 56 0 72 0;
#X connect 58 0 57 0;
#X connect 58 0 71 0;
#X connect 60 0 61 1;
#X connect 61 0 29 0;
#X connect 62 0 63 1;
#X connect 63 0 26 0;
#X connect 64 0 65 1;
#X connect 65 0 28 0;
#X connect 66 0 58 0;
#X connect 67 0 52 1;
#X connect 69 0 68 0;
#X connect 69 0 70 0;
#X connect 69 0 73 0;
#X connect 69 0 78 0;
#X connect 69 0 82 0;
#X connect 69 0 83 0;
#X connect 72 0 69 0;
#X connect 74 0 52 0;
#X connect 75 0 61 0;
#X connect 76 0 63 0;
#X connect 77 0 65 0;
#X connect 79 0 31 0;
#X connect 80 0 7 0;
#X connect 81 0 33 0;
#X connect 85 0 51 0;
#X restore 94 289 pd thunderInstance;
#X obj 18 167 bng 15 250 50 0 empty empty empty 17 7 0 10 -262144 -1
-1;
#X connect 1 0 3 0;
#X connect 2 0 3 0;
#X connect 3 0 4 0;
#X connect 3 0 6 0;
#X connect 4 0 3 1;
#X connect 5 0 0 0;
#X connect 5 1 8 0;
#X connect 5 2 9 0;
#X connect 5 3 10 0;
#X connect 6 0 5 0;
#X connect 6 0 7 0;
#X connect 6 0 11 0;
