#N canvas 953 0 958 988 10;
#X obj 0 154 noise~;
#X obj 39 207 *~;
#X obj 55 175 vline~;
#X obj 87 330 outlet~;
#X obj 55 0 inlet;
#X obj 190 165 * 0.5;
#X obj 55 45 swap 1;
#X obj 55 68 -;
#X msg 55 153 1 \, 0 \$1 0;
#X obj 55 22 t f f;
#X obj 55 89 + 0.4;
#X obj 160 142 t f f;
#X obj 132 36 * 1200;
#X text 28 128 200;
#X text 235 266 both bp 1 3;
#X obj 55 109 pow 5;
#X obj 144 266 bp~ 1000 0.05;
#X obj 39 265 bp~ 1000 0.05;
#X obj 55 132 * 20;
#X text 267 79 orig [no random] + 100;
#X obj 196 46 bng 15 250 50 0 empty empty empty 17 7 0 10 -262144 -1
-1;
#X obj 160 121 - 0;
#X obj 131 63 +;
#X obj 137 91 + 100;
#X obj 179 67 random 400;
#X connect 0 0 1 0;
#X connect 1 0 16 0;
#X connect 1 0 17 0;
#X connect 2 0 1 1;
#X connect 4 0 9 0;
#X connect 5 0 16 1;
#X connect 6 0 7 0;
#X connect 6 1 7 1;
#X connect 7 0 10 0;
#X connect 8 0 2 0;
#X connect 9 0 6 0;
#X connect 9 1 12 0;
#X connect 10 0 15 0;
#X connect 11 0 17 1;
#X connect 11 1 5 0;
#X connect 12 0 20 0;
#X connect 12 0 22 0;
#X connect 15 0 18 0;
#X connect 16 0 3 0;
#X connect 17 0 3 0;
#X connect 18 0 8 0;
#X connect 20 0 24 0;
#X connect 21 0 11 0;
#X connect 22 0 23 0;
#X connect 23 0 21 0;
#X connect 24 0 22 1;
